<svg xmlns="http://www.w3.org/2000/svg" xmlns:xlink="http://www.w3.org/1999/xlink" width="688.324" height="380.314" viewBox="0 0 688.324 380.314">
  <defs>
    <linearGradient id="linear-gradient" x1="0.5" x2="0.5" y2="1" gradientUnits="objectBoundingBox">
      <stop offset="0" stop-color="#8d6d3a"/>
      <stop offset="1" stop-color="#635238"/>
    </linearGradient>
    <linearGradient id="linear-gradient-2" x1="0.5" x2="0.5" y2="1" gradientUnits="objectBoundingBox">
      <stop offset="0" stop-color="#f4ca89"/>
      <stop offset="0.408" stop-color="#635238"/>
      <stop offset="1" stop-color="#635238"/>
    </linearGradient>
    <clipPath id="clip-path">
      <ellipse id="Ellipse_1514" data-name="Ellipse 1514" cx="344.162" cy="11.732" rx="344.162" ry="11.732" fill="url(#linear-gradient)"/>
    </clipPath>
    <clipPath id="clip-path-2">
      <path id="Path_39286" data-name="Path 39286" d="M614.625,1348.922s2.281-27.755-23.98-32.616c-26.261-4.834-94.1-50.431-120.5-43.913-11.107,2.743-.842,34.109-7.55,50.865-5.649,14.122-34.6,41.116-13.606,46.792H617.721Z" transform="translate(-441.461 -1271.757)"/>
    </clipPath>
    <clipPath id="clip-path-3">
      <path id="Path_39290" data-name="Path 39290" d="M781.452,1303.952c0,24.17-24.224,34.788-51.544,34.788s-47.308-10.618-47.308-34.788,24.577-53.853,51.87-53.853S781.452,1279.783,781.452,1303.952Z" transform="translate(-682.6 -1250.1)"/>
    </clipPath>
    <clipPath id="clip-path-4">
      <path id="Path_39302" data-name="Path 39302" d="M1117.2,1350.592s7.061-69.115,13.117-76.583,101.242-23.762,137.985-27.347c152.3-14.828,274.531,100.155,247.211,103.577-8.772,1.086-57.763.38-57.763.38H1117.2Z" transform="translate(-1117.2 -1245.342)"/>
    </clipPath>
    <clipPath id="clip-path-42">
      <path id="Path_39382" data-name="Path 39382" d="M895.495,1519.58l62.624-28.08-4.454,38.4s-47.226,8.554-56.378,8.12S895.495,1519.58,895.495,1519.58Z" transform="translate(-892.696 -1491.5)"/>
    </clipPath>
    <clipPath id="clip-path-43">
      <path id="Path_39385" data-name="Path 39385" d="M877.162,1178.235s-28.759-7.686-46-22c-17.3-14.366,42.338-40.247,61.565-37.558s28.433,59.908,6.626,95.647l-11.976-53.2C887.4,1161.1,888.867,1173.89,877.162,1178.235Z" transform="translate(-828.048 -1118.485)"/>
    </clipPath>
    <linearGradient id="linear-gradient-5" x1="0.5" x2="0.5" y2="1" gradientUnits="objectBoundingBox">
      <stop offset="0" stop-color="#f4ca89"/>
      <stop offset="1" stop-color="#e2ad5b"/>
    </linearGradient>
  </defs>
  <g id="_404" data-name="404" transform="translate(-232.7 -297.08)">
    <g id="Group_45561" data-name="Group 45561" transform="translate(232.7 653.93)">
      <ellipse id="Ellipse_1512" data-name="Ellipse 1512" cx="344.162" cy="11.732" rx="344.162" ry="11.732" transform="translate(0)" fill="url(#linear-gradient-2)"/>
      <g id="Group_45560" data-name="Group 45560" transform="translate(0 0)" clip-path="url(#clip-path)">
        <ellipse id="Ellipse_1513" data-name="Ellipse 1513" cx="320.101" cy="13.633" rx="320.101" ry="13.633" transform="translate(33.295 -9.206)" fill="url(#linear-gradient)"/>
      </g>
    </g>
    <path id="Path_39283" data-name="Path 39283" d="M964.214,660.067c15.643,0,25.854-15.887,25.881-34.164.19-156.072-32.317-317.032-231.46-327.189-232.845-11.922-319.992,37.857-346.606,265.76-5.92,50.621-20.938,96.462,71.831,95.593Z" transform="translate(-127.241)" fill="#fdf8f2"/>
    <g id="Group_45614" data-name="Group 45614" transform="translate(289.393 520.15)">
      <g id="Group_45563" data-name="Group 45563" transform="translate(0 41.624)">
        <path id="Path_39284" data-name="Path 39284" d="M614.625,1348.922s2.281-27.755-23.98-32.616c-26.261-4.834-94.1-50.431-120.5-43.913-11.107,2.743-.842,34.109-7.55,50.865-5.649,14.122-34.6,41.116-13.606,46.792H617.721Z" transform="translate(-441.461 -1271.757)" fill="url(#linear-gradient-2)"/>
        <g id="Group_45562" data-name="Group 45562" clip-path="url(#clip-path-2)">
          <path id="Path_39285" data-name="Path 39285" d="M663.01,1302.8s-19.58,57.193-1.276,76.746,55.02,27.184,55.02,27.184h55.781v-94.262L663.01,1302.8" transform="translate(-596.219 -1294.37)" fill="#f4ca89" opacity="0.42"/>
        </g>
      </g>
      <path id="Path_39287" data-name="Path 39287" d="M982.755,1362.061s40.844-4.128,59.012-10.781-9.07,76.2-9.07,76.2h-67Z" transform="translate(-823.332 -1287.783)" fill="#573a1d"/>
      <g id="Group_45567" data-name="Group 45567" transform="translate(65.486 33.32)">
        <g id="Group_45565" data-name="Group 45565" transform="translate(0 2.423)">
          <path id="Path_39288" data-name="Path 39288" d="M781.452,1303.952c0,24.17-24.224,34.788-51.544,34.788s-47.308-10.618-47.308-34.788,24.577-53.853,51.87-53.853S781.452,1279.783,781.452,1303.952Z" transform="translate(-682.6 -1250.1)" fill="#635238"/>
          <g id="Group_45564" data-name="Group 45564" clip-path="url(#clip-path-3)">
            <path id="Path_39289" data-name="Path 39289" d="M687.582,1331.2s5.106,76.094-81.363,52.875h0s7.468,30.5,47.389,21.508c39.921-9.016,51.924-27.727,51.626-41.034s-17.652-33.349-17.652-33.349" transform="translate(-598.968 -1309.176)" fill="#635238"/>
          </g>
        </g>
        <path id="Path_39291" data-name="Path 39291" d="M770.58,1244.523a103.629,103.629,0,0,0-24.333-3.34,17.355,17.355,0,0,0-6.491.788c-.326.136-.706.326-.815.652-.163.57.462,1.032,1,1.222a7.646,7.646,0,0,0,2.689.435c-2.906.271-5.812.543-8.745.815-2.471.244-5.214.6-6.789,2.526-.407.489-.652,1.276-.163,1.656a1.439,1.439,0,0,0,.76.19c1.9.081,3.775.136,5.676.217a27.33,27.33,0,0,0-11.3,4.888,1.944,1.944,0,0,0-.842,1.032c-.217,1,1.086,1.6,2.091,1.765,6.328,1,12.764.435,19.146-.109a112.778,112.778,0,0,0,15.4-2.064,15.868,15.868,0,0,0,7.115-3.1c1.982-1.711,3.2-4.535,2.336-7.006" transform="translate(-710.726 -1241.177)" fill="#635238"/>
        <path id="Path_39292" data-name="Path 39292" d="M776.1,1449.1s6.871,4.4,10.51-2.8C786.61,1446.3,782.971,1450.292,776.1,1449.1Z" transform="translate(-750.708 -1390.594)" fill="#231f20"/>
        <path id="Path_39293" data-name="Path 39293" d="M922.4,1435.8s4.644,6.029,11.759,1.086A15.878,15.878,0,0,1,922.4,1435.8Z" transform="translate(-857.277 -1382.946)" fill="#231f20"/>
        <path id="Path_39294" data-name="Path 39294" d="M762.819,1379.921c3.286-3.721,23.274.163,30.769,1.792-.054-10.456-6.545-19.852-19.2-17-5.893,1.331-11.3,4.7-17.055,6.518a8.67,8.67,0,0,0-2.037-1.521q-1.589-.937-3.259-1.792a1.843,1.843,0,0,0-1.738-.217,1.241,1.241,0,0,0-.407,1.439,3.616,3.616,0,0,0,.9,1.3,39.26,39.26,0,0,0-5.7-4.454,1.04,1.04,0,0,0-.869-.217.587.587,0,0,0-.3.326,2.06,2.06,0,0,0,.353,1.983,8.745,8.745,0,0,0,2.553,2.634,40.765,40.765,0,0,0-5.16-2.743,10.688,10.688,0,0,0-4.345-1.168c-.3,0-.652.054-.788.326a.815.815,0,0,0,.163.733,8.48,8.48,0,0,0,3.639,2.716c.163.081.3.136.462.217,1.141.516,2.308,1,3.5,1.439-5.54-.462-10.944-1.467-16.349-1.3a26.688,26.688,0,0,0-11.623,2.879c-7.631,3.911-11.134,10.7-10.157,18.25,6.273-3.856,24.387-12.9,31.013-8.5,6.789,4.535-14.23,20.829-21.047,25.854,18.793,16.05,56.107,9.586,71.125-9.912C769.581,1398.578,759.045,1384.212,762.819,1379.921Z" transform="translate(-699.652 -1330.787)" fill="#ecc18f"/>
        <g id="Group_45566" data-name="Group 45566" transform="translate(41.523 59.81)">
          <path id="Path_39295" data-name="Path 39295" d="M879.727,1515.719a4.792,4.792,0,0,1,.706,3.368,1.534,1.534,0,0,1-.3.679,1.474,1.474,0,0,1-1.141.434,2.723,2.723,0,0,1-2.526-2.091c-.136-.652-.136-1.467-.733-1.738a1.129,1.129,0,0,0-.6-.054c-.95.163-1.656,1.032-2.607,1.114-1.222.082-2.145-1.141-3.367-1.358a4.554,4.554,0,0,1-1.059-.19c-.326-.136-.6-.543-.434-.842s.543-.326.869-.326a33.244,33.244,0,0,0,5.431-.6c.815-.163,1.629-.38,2.444-.57a1.738,1.738,0,0,1,1.494.3A6.655,6.655,0,0,1,879.727,1515.719Z" transform="translate(-858.898 -1499.348)" fill="#fff"/>
          <path id="Path_39296" data-name="Path 39296" d="M850.6,1475.723c-.815.136-1.657.19-2.5.272l-1.249.082c-.19.027-.407.027-.625.054a19.542,19.542,0,0,1-.706-5.947c3.367-.353,5.92-2.471,5.757-4.834-.19-2.417-3.177-4.155-6.681-3.911-3.5.271-6.219,2.444-6.029,4.861.163,2.118,2.5,3.72,5.431,3.911a22.657,22.657,0,0,0,.652,5.975c-1.358.054-2.689.054-4.046,0-1.684-.054-3.367-.136-5.106-.272a19.744,19.744,0,0,0,4.97,1.466,25.741,25.741,0,0,0,5.214.3c.869-.027,1.738-.136,2.607-.244.435-.081.869-.163,1.276-.244.217-.054.435-.082.652-.136l.625-.163a19.163,19.163,0,0,0,4.807-2.01C853.913,1475.18,852.256,1475.56,850.6,1475.723Z" transform="translate(-835.5 -1461.416)" fill="#352f31"/>
        </g>
        <path id="Path_39297" data-name="Path 39297" d="M771.642,1408.821a14.526,14.526,0,0,0-2.634.489,3.653,3.653,0,0,0-2.254,1.575c-.462.9-.136,1.684.951,1.684,4.264.082,8.5-.543,12.764-.407a4.761,4.761,0,0,0,1.249-.082c2.58-.679-.706-2.335-1.684-2.58A26.172,26.172,0,0,0,771.642,1408.821Z" transform="translate(-743.752 -1363.218)" fill="#635238"/>
        <path id="Path_39298" data-name="Path 39298" d="M911.342,1392.051a14.516,14.516,0,0,0-2.634.489,3.653,3.653,0,0,0-2.254,1.575c-.462.9-.136,1.684.95,1.684,4.264.081,8.5-.543,12.764-.407a4.761,4.761,0,0,0,1.249-.082c2.58-.679-.706-2.335-1.684-2.58A27.028,27.028,0,0,0,911.342,1392.051Z" transform="translate(-845.513 -1351.01)" fill="#635238"/>
        <path id="Path_39299" data-name="Path 39299" d="M761.284,1243.646c-1.385-.353-2.77-.652-4.128-.95-1.385-.272-2.77-.543-4.155-.679-.353-.027-.679-.054-1.032-.054a5.164,5.164,0,0,0-.95.082.606.606,0,0,0-.272.136v.082l.027.081a1.238,1.238,0,0,0,.462.6,4.23,4.23,0,0,0,1.792.57,9.971,9.971,0,0,0,2.01.054.472.472,0,0,1,.516.462.484.484,0,0,1-.434.516h-.027c-1.847.19-3.721.38-5.567.625s-3.693.516-5.486.9a16.005,16.005,0,0,0-2.607.733,5.411,5.411,0,0,0-.57.272,1.731,1.731,0,0,0-.38.272c-.027.027-.054.163-.054.136h0v.027c.027,0,.027.027.054.027.027.027.054.027.081.054a3.2,3.2,0,0,0,1.141.272,10.683,10.683,0,0,0,1.331.054,23.225,23.225,0,0,0,2.743-.163h0a.585.585,0,0,1,.652.516.6.6,0,0,1-.407.625c-1.955.57-3.911,1.195-5.839,1.874a48.843,48.843,0,0,0-5.649,2.227,9.734,9.734,0,0,0-1.276.733,2.627,2.627,0,0,0-.489.434.42.42,0,0,0-.081.163c0,.027,0,.027.027.082a1.515,1.515,0,0,0,.217.163c.081.054.217.081.326.136l.353.136c.109.027.244.081.353.109l.353.109.353.082c.109.027.244.054.38.081l.38.054a16.994,16.994,0,0,0,6.056-.462,16.047,16.047,0,0,1-2.987.76,14.828,14.828,0,0,1-3.1.19l-.38-.027c-.136-.027-.271-.027-.38-.054l-.38-.054-.38-.082c-.136-.027-.272-.054-.38-.082l-.38-.136c-.136-.054-.244-.082-.38-.136a1.185,1.185,0,0,1-.407-.272.8.8,0,0,1-.244-.6,1.419,1.419,0,0,1,.19-.543,3.4,3.4,0,0,1,.625-.625,14.356,14.356,0,0,1,1.358-.869,29.619,29.619,0,0,1,2.824-1.331c.951-.407,1.9-.788,2.879-1.141,1.928-.706,3.883-1.385,5.839-2.01l.244,1.141a25.2,25.2,0,0,1-2.879.19,13.263,13.263,0,0,1-1.466-.054,4.666,4.666,0,0,1-1.575-.407l-.217-.136c-.081-.054-.136-.136-.217-.19a.978.978,0,0,1-.19-.272.773.773,0,0,1-.109-.326,1.548,1.548,0,0,1-.027-.353.978.978,0,0,1,.054-.3,1.462,1.462,0,0,1,.272-.543,2.689,2.689,0,0,1,.733-.57,5.322,5.322,0,0,1,.706-.326,18.677,18.677,0,0,1,2.8-.76c1.874-.38,3.721-.652,5.594-.869s3.748-.38,5.622-.489l.054,1a12.261,12.261,0,0,1-2.227-.136,4.85,4.85,0,0,1-2.173-.815,2.051,2.051,0,0,1-.733-1.086.837.837,0,0,1-.027-.38.709.709,0,0,1,.19-.462,1.181,1.181,0,0,1,.679-.353,4.261,4.261,0,0,1,1.168-.054c.38.027.733.054,1.086.109a37.239,37.239,0,0,1,4.182.95C758.6,1242.75,759.927,1243.184,761.284,1243.646Z" transform="translate(-718.648 -1241.223)" fill="#ecc18f"/>
      </g>
      <g id="Group_45606" data-name="Group 45606" transform="translate(183.511 34.451)">
        <path id="Path_39300" data-name="Path 39300" d="M1117.2,1350.592s7.061-69.115,13.117-76.583,101.242-23.762,137.985-27.347c152.3-14.828,274.531,100.155,247.211,103.577-8.772,1.086-57.763.38-57.763.38H1117.2Z" transform="translate(-1117.2 -1245.342)" fill="#f4ca89"/>
        <g id="Group_45568" data-name="Group 45568" clip-path="url(#clip-path-4)">
          <path id="Path_39301" data-name="Path 39301" d="M1415.235,1364.988a4.787,4.787,0,0,0,3.286-1.358,4.655,4.655,0,0,0,0-6.572,4.737,4.737,0,0,0-3.286-1.358,4.787,4.787,0,0,0-3.286,1.358,4.655,4.655,0,0,0,0,6.572,4.967,4.967,0,0,0,3.286,1.358Z" transform="translate(-1330.912 -1325.73)" fill="#fff"/>
        </g>
        <g id="Group_45569" data-name="Group 45569" clip-path="url(#clip-path-4)">
          <path id="Path_39303" data-name="Path 39303" d="M1505.535,1482.088a4.788,4.788,0,0,0,3.286-1.358,4.655,4.655,0,0,0,0-6.572,4.737,4.737,0,0,0-3.286-1.358,4.787,4.787,0,0,0-3.286,1.358,4.655,4.655,0,0,0,0,6.572,4.838,4.838,0,0,0,3.286,1.358Z" transform="translate(-1396.689 -1411.029)" fill="#fff"/>
        </g>
        <g id="Group_45570" data-name="Group 45570" clip-path="url(#clip-path-4)">
          <path id="Path_39305" data-name="Path 39305" d="M1622.635,1294.188a4.787,4.787,0,0,0,3.286-1.358,4.655,4.655,0,0,0,0-6.572,4.737,4.737,0,0,0-3.286-1.358,4.787,4.787,0,0,0-3.286,1.358,4.655,4.655,0,0,0,0,6.572,4.839,4.839,0,0,0,3.286,1.358Z" transform="translate(-1481.988 -1274.157)" fill="#fff"/>
        </g>
        <g id="Group_45571" data-name="Group 45571" clip-path="url(#clip-path-4)">
          <path id="Path_39307" data-name="Path 39307" d="M1551.935,1377.188a4.787,4.787,0,0,0,3.286-1.358,4.655,4.655,0,0,0,0-6.572,4.737,4.737,0,0,0-3.286-1.358,4.787,4.787,0,0,0-3.286,1.358,4.655,4.655,0,0,0,0,6.572,4.86,4.86,0,0,0,3.286,1.358Z" transform="translate(-1430.488 -1334.617)" fill="#fff"/>
        </g>
        <g id="Group_45572" data-name="Group 45572" clip-path="url(#clip-path-4)">
          <path id="Path_39309" data-name="Path 39309" d="M1495.735,1267.388a4.788,4.788,0,0,0,3.286-1.358,4.655,4.655,0,0,0,0-6.572,4.737,4.737,0,0,0-3.286-1.358,4.787,4.787,0,0,0-3.286,1.358,4.655,4.655,0,0,0,0,6.572,4.968,4.968,0,0,0,3.286,1.358Z" transform="translate(-1389.55 -1254.635)" fill="#fff"/>
        </g>
        <g id="Group_45573" data-name="Group 45573" clip-path="url(#clip-path-4)">
          <path id="Path_39311" data-name="Path 39311" d="M1237.135,1372.288a4.787,4.787,0,0,0,3.286-1.358,4.655,4.655,0,0,0,0-6.572,4.737,4.737,0,0,0-3.286-1.358,4.787,4.787,0,0,0-3.286,1.358,4.655,4.655,0,0,0,0,6.572,4.838,4.838,0,0,0,3.286,1.358Z" transform="translate(-1201.179 -1331.047)" fill="#fff"/>
        </g>
        <g id="Group_45574" data-name="Group 45574" clip-path="url(#clip-path-4)">
          <path id="Path_39313" data-name="Path 39313" d="M1322.535,1516.288a4.788,4.788,0,0,0,3.286-1.358,4.655,4.655,0,0,0,0-6.572,4.737,4.737,0,0,0-3.286-1.358,4.788,4.788,0,0,0-3.286,1.358,4.655,4.655,0,0,0,0,6.572,4.968,4.968,0,0,0,3.286,1.358Z" transform="translate(-1263.387 -1435.941)" fill="#fff"/>
        </g>
        <g id="Group_45575" data-name="Group 45575" clip-path="url(#clip-path-4)">
          <path id="Path_39315" data-name="Path 39315" d="M1315.235,1408.888a4.787,4.787,0,0,0,3.286-1.358,4.655,4.655,0,0,0,0-6.572,4.737,4.737,0,0,0-3.286-1.358,4.787,4.787,0,0,0-3.286,1.358,4.655,4.655,0,0,0,0,6.572,4.737,4.737,0,0,0,3.286,1.358Z" transform="translate(-1258.069 -1357.708)" fill="#fff"/>
        </g>
        <g id="Group_45576" data-name="Group 45576" clip-path="url(#clip-path-4)">
          <path id="Path_39317" data-name="Path 39317" d="M1176.135,1482.088a4.787,4.787,0,0,0,3.286-1.358,4.655,4.655,0,0,0,0-6.572,4.737,4.737,0,0,0-3.286-1.358,4.786,4.786,0,0,0-3.286,1.358,4.655,4.655,0,0,0,0,6.572,4.737,4.737,0,0,0,3.286,1.358Z" transform="translate(-1156.744 -1411.029)" fill="#fff"/>
        </g>
        <g id="Group_45577" data-name="Group 45577" clip-path="url(#clip-path-4)">
          <path id="Path_39319" data-name="Path 39319" d="M1200.535,1577.288a4.787,4.787,0,0,0,3.286-1.358,4.655,4.655,0,0,0,0-6.572,4.736,4.736,0,0,0-3.286-1.358,4.786,4.786,0,0,0-3.286,1.358,4.655,4.655,0,0,0,0,6.572,4.86,4.86,0,0,0,3.286,1.358Z" transform="translate(-1174.518 -1480.375)" fill="#fff"/>
        </g>
        <g id="Group_45578" data-name="Group 45578" clip-path="url(#clip-path-4)">
          <path id="Path_39321" data-name="Path 39321" d="M1442.335,1572.588a4.787,4.787,0,0,0,3.286-1.358,4.655,4.655,0,0,0,0-6.572,4.737,4.737,0,0,0-3.286-1.358,4.786,4.786,0,0,0-3.286,1.358,4.655,4.655,0,0,0,0,6.572,4.838,4.838,0,0,0,3.286,1.358Z" transform="translate(-1350.652 -1476.952)" fill="#fff"/>
        </g>
        <g id="Group_45579" data-name="Group 45579" clip-path="url(#clip-path-4)">
          <path id="Path_39323" data-name="Path 39323" d="M1412.335,1452.788a4.787,4.787,0,0,0,3.286-1.358,4.655,4.655,0,0,0,0-6.572,4.737,4.737,0,0,0-3.286-1.358,4.787,4.787,0,0,0-3.286,1.358,4.655,4.655,0,0,0,0,6.572,4.838,4.838,0,0,0,3.286,1.358Z" transform="translate(-1328.799 -1389.686)" fill="#fff"/>
        </g>
        <g id="Group_45580" data-name="Group 45580" clip-path="url(#clip-path-4)">
          <path id="Path_39325" data-name="Path 39325" d="M1691.935,1486.088a4.786,4.786,0,0,0,3.286-1.358,4.655,4.655,0,0,0,0-6.572,4.736,4.736,0,0,0-3.286-1.358,4.786,4.786,0,0,0-3.286,1.358,4.655,4.655,0,0,0,0,6.572,4.737,4.737,0,0,0,3.286,1.358Z" transform="translate(-1532.468 -1413.943)" fill="#fff"/>
        </g>
        <g id="Group_45581" data-name="Group 45581" clip-path="url(#clip-path-4)">
          <path id="Path_39327" data-name="Path 39327" d="M1755.135,1336.288a4.787,4.787,0,0,0,3.286-1.358,4.655,4.655,0,0,0,0-6.572,4.737,4.737,0,0,0-3.286-1.358,4.786,4.786,0,0,0-3.286,1.358,4.655,4.655,0,0,0,0,6.572,4.838,4.838,0,0,0,3.286,1.358Z" transform="translate(-1578.505 -1304.824)" fill="#fff"/>
        </g>
        <g id="Group_45582" data-name="Group 45582" clip-path="url(#clip-path-4)">
          <path id="Path_39329" data-name="Path 39329" d="M1635.335,1389.588a4.788,4.788,0,0,0,3.286-1.358,4.655,4.655,0,0,0,0-6.572,4.737,4.737,0,0,0-3.286-1.358,4.786,4.786,0,0,0-3.286,1.358,4.655,4.655,0,0,0,0,6.572,4.838,4.838,0,0,0,3.286,1.358Z" transform="translate(-1491.239 -1343.649)" fill="#fff"/>
        </g>
        <g id="Group_45583" data-name="Group 45583" clip-path="url(#clip-path-4)">
          <path id="Path_39331" data-name="Path 39331" d="M1615.335,1575.888a4.788,4.788,0,0,0,3.286-1.358,4.655,4.655,0,0,0,0-6.572,4.737,4.737,0,0,0-3.286-1.358,4.786,4.786,0,0,0-3.286,1.358,4.655,4.655,0,0,0,0,6.572,4.838,4.838,0,0,0,3.286,1.358Z" transform="translate(-1476.671 -1479.356)" fill="#fff"/>
        </g>
        <g id="Group_45584" data-name="Group 45584" clip-path="url(#clip-path-4)">
          <path id="Path_39333" data-name="Path 39333" d="M1861.635,1619.188a4.787,4.787,0,0,0,3.286-1.358,4.655,4.655,0,0,0,0-6.572,4.737,4.737,0,0,0-3.286-1.358,4.788,4.788,0,0,0-3.286,1.358,4.655,4.655,0,0,0,0,6.572,4.839,4.839,0,0,0,3.286,1.358Z" transform="translate(-1656.082 -1510.896)" fill="#fff"/>
        </g>
        <g id="Group_45585" data-name="Group 45585" clip-path="url(#clip-path-4)">
          <path id="Path_39335" data-name="Path 39335" d="M1918.235,1439.488a4.788,4.788,0,0,0,3.286-1.358,4.655,4.655,0,0,0,0-6.572,4.737,4.737,0,0,0-3.286-1.358,4.787,4.787,0,0,0-3.286,1.358,4.655,4.655,0,0,0,0,6.572,4.737,4.737,0,0,0,3.286,1.358Z" transform="translate(-1697.311 -1379.998)" fill="#fff"/>
        </g>
        <g id="Group_45586" data-name="Group 45586" clip-path="url(#clip-path-4)">
          <path id="Path_39337" data-name="Path 39337" d="M1775.135,1542.688a4.787,4.787,0,0,0,3.286-1.358,4.655,4.655,0,0,0,0-6.572,4.737,4.737,0,0,0-3.286-1.358,4.787,4.787,0,0,0-3.286,1.358,4.655,4.655,0,0,0,0,6.572,4.86,4.86,0,0,0,3.286,1.358Z" transform="translate(-1593.073 -1455.172)" fill="#fff"/>
        </g>
        <g id="Group_45587" data-name="Group 45587" clip-path="url(#clip-path-4)">
          <path id="Path_39339" data-name="Path 39339" d="M1801.735,1432.788a4.788,4.788,0,0,0,3.286-1.358,4.655,4.655,0,0,0,0-6.572,4.737,4.737,0,0,0-3.286-1.358,4.786,4.786,0,0,0-3.286,1.358,4.655,4.655,0,0,0,0,6.572,4.838,4.838,0,0,0,3.286,1.358Z" transform="translate(-1612.45 -1375.117)" fill="#fff"/>
        </g>
        <g id="Group_45588" data-name="Group 45588" clip-path="url(#clip-path-4)">
          <path id="Path_39341" data-name="Path 39341" d="M1911.535,1246.488a4.789,4.789,0,0,0,3.286-1.358,4.656,4.656,0,0,0,0-6.572,4.738,4.738,0,0,0-3.286-1.358,4.788,4.788,0,0,0-3.286,1.358,4.656,4.656,0,0,0,0,6.572,4.839,4.839,0,0,0,3.286,1.358Z" transform="translate(-1692.431 -1239.411)" fill="#fff"/>
        </g>
        <g id="Group_45589" data-name="Group 45589" clip-path="url(#clip-path-4)">
          <path id="Path_39343" data-name="Path 39343" d="M1758.435,1263.088a4.787,4.787,0,0,0,3.286-1.358,4.655,4.655,0,0,0,0-6.572,4.736,4.736,0,0,0-3.286-1.358,4.786,4.786,0,0,0-3.286,1.358,4.655,4.655,0,0,0,0,6.572,4.838,4.838,0,0,0,3.286,1.358Z" transform="translate(-1580.909 -1251.503)" fill="#fff"/>
        </g>
        <g id="Group_45590" data-name="Group 45590" clip-path="url(#clip-path-4)">
          <path id="Path_39345" data-name="Path 39345" d="M2151.135,1456.088a4.787,4.787,0,0,0,3.286-1.358,4.655,4.655,0,0,0,0-6.572,4.736,4.736,0,0,0-3.286-1.358,4.787,4.787,0,0,0-3.286,1.358,4.655,4.655,0,0,0,0,6.572,4.839,4.839,0,0,0,3.286,1.358Z" transform="translate(-1866.963 -1392.09)" fill="#fff"/>
        </g>
        <g id="Group_45591" data-name="Group 45591" clip-path="url(#clip-path-4)">
          <path id="Path_39347" data-name="Path 39347" d="M2077.934,1329.688a4.788,4.788,0,0,0,3.286-1.358,4.655,4.655,0,0,0,0-6.572,4.737,4.737,0,0,0-3.286-1.358,4.788,4.788,0,0,0-3.286,1.358,4.655,4.655,0,0,0,0,6.572,4.84,4.84,0,0,0,3.286,1.358Z" transform="translate(-1813.641 -1300.016)" fill="#fff"/>
        </g>
        <g id="Group_45592" data-name="Group 45592" clip-path="url(#clip-path-4)">
          <path id="Path_39349" data-name="Path 39349" d="M1911.535,1339.688a4.789,4.789,0,0,0,3.286-1.358,4.656,4.656,0,0,0,0-6.572,4.738,4.738,0,0,0-3.286-1.358,4.788,4.788,0,0,0-3.286,1.358,4.656,4.656,0,0,0,0,6.572,4.968,4.968,0,0,0,3.286,1.358Z" transform="translate(-1692.431 -1307.301)" fill="#fff"/>
        </g>
        <g id="Group_45593" data-name="Group 45593" clip-path="url(#clip-path-4)">
          <path id="Path_39351" data-name="Path 39351" d="M2028.035,1406.188a4.788,4.788,0,0,0,3.286-1.358,4.655,4.655,0,0,0,0-6.572,4.737,4.737,0,0,0-3.286-1.358,4.787,4.787,0,0,0-3.286,1.358,4.655,4.655,0,0,0,0,6.572,4.838,4.838,0,0,0,3.286,1.358Z" transform="translate(-1777.293 -1355.741)" fill="#fff"/>
        </g>
        <g id="Group_45594" data-name="Group 45594" clip-path="url(#clip-path-4)">
          <path id="Path_39353" data-name="Path 39353" d="M2044.635,1552.688a4.788,4.788,0,0,0,3.286-1.358,4.655,4.655,0,0,0,0-6.572,4.737,4.737,0,0,0-3.286-1.358,4.788,4.788,0,0,0-3.286,1.358,4.655,4.655,0,0,0,0,6.572,4.967,4.967,0,0,0,3.286,1.358Z" transform="translate(-1789.385 -1462.456)" fill="#fff"/>
        </g>
        <g id="Group_45595" data-name="Group 45595" clip-path="url(#clip-path-4)">
          <path id="Path_39355" data-name="Path 39355" d="M1934.835,1545.988a4.787,4.787,0,0,0,3.286-1.358,4.655,4.655,0,0,0,0-6.572,4.737,4.737,0,0,0-3.286-1.358,4.787,4.787,0,0,0-3.286,1.358,4.655,4.655,0,0,0,0,6.572,4.838,4.838,0,0,0,3.286,1.358Z" transform="translate(-1709.404 -1457.576)" fill="#fff"/>
        </g>
        <g id="Group_45596" data-name="Group 45596" clip-path="url(#clip-path-4)">
          <path id="Path_39357" data-name="Path 39357" d="M2184.434,1589.288a4.787,4.787,0,0,0,3.286-1.358,4.655,4.655,0,0,0,0-6.572,4.737,4.737,0,0,0-3.286-1.358,4.787,4.787,0,0,0-3.286,1.358,4.655,4.655,0,0,0,0,6.572,4.967,4.967,0,0,0,3.286,1.358Z" transform="translate(-1891.219 -1489.117)" fill="#fff"/>
        </g>
        <g id="Group_45597" data-name="Group 45597" clip-path="url(#clip-path-4)">
          <path id="Path_39359" data-name="Path 39359" d="M2257.635,1496.088a4.786,4.786,0,0,0,3.286-1.358,4.655,4.655,0,0,0,0-6.572,4.736,4.736,0,0,0-3.286-1.358,4.788,4.788,0,0,0-3.286,1.358,4.655,4.655,0,0,0,0,6.572,4.967,4.967,0,0,0,3.286,1.358Z" transform="translate(-1944.54 -1421.227)" fill="#fff"/>
        </g>
        <g id="Group_45598" data-name="Group 45598" clip-path="url(#clip-path-4)">
          <path id="Path_39361" data-name="Path 39361" d="M2197.734,1386.288a4.788,4.788,0,0,0,3.286-1.358,4.655,4.655,0,0,0,0-6.572,4.737,4.737,0,0,0-3.286-1.358,4.786,4.786,0,0,0-3.286,1.358,4.655,4.655,0,0,0,0,6.572,4.967,4.967,0,0,0,3.286,1.358Z" transform="translate(-1900.907 -1341.245)" fill="#fff"/>
        </g>
        <g id="Group_45599" data-name="Group 45599" clip-path="url(#clip-path-4)">
          <path id="Path_39363" data-name="Path 39363" d="M2430.734,1519.388a4.788,4.788,0,0,0,3.286-1.358,4.655,4.655,0,0,0,0-6.572,4.737,4.737,0,0,0-3.286-1.358,4.787,4.787,0,0,0-3.286,1.358,4.655,4.655,0,0,0,0,6.572,4.86,4.86,0,0,0,3.286,1.358Z" transform="translate(-2070.631 -1438.199)" fill="#fff"/>
        </g>
        <g id="Group_45600" data-name="Group 45600" clip-path="url(#clip-path-4)">
          <path id="Path_39365" data-name="Path 39365" d="M2330.834,1422.888a4.788,4.788,0,0,0,3.286-1.358,4.655,4.655,0,0,0,0-6.572,4.737,4.737,0,0,0-3.286-1.358,4.787,4.787,0,0,0-3.286,1.358,4.655,4.655,0,0,0,0,6.572,4.967,4.967,0,0,0,3.286,1.358Z" transform="translate(-1997.861 -1367.906)" fill="#fff"/>
        </g>
        <g id="Group_45601" data-name="Group 45601" clip-path="url(#clip-path-4)">
          <path id="Path_39367" data-name="Path 39367" d="M2327.534,1592.588a4.788,4.788,0,0,0,3.286-1.358,4.655,4.655,0,0,0,0-6.572,4.737,4.737,0,0,0-3.286-1.358,4.788,4.788,0,0,0-3.286,1.358,4.656,4.656,0,0,0,0,6.572,4.84,4.84,0,0,0,3.286,1.358Z" transform="translate(-1995.457 -1491.521)" fill="#fff"/>
        </g>
        <g id="Group_45602" data-name="Group 45602" clip-path="url(#clip-path-4)">
          <path id="Path_39369" data-name="Path 39369" d="M2457.334,1592.588a4.787,4.787,0,0,0,3.286-1.358,4.655,4.655,0,0,0,0-6.572,4.737,4.737,0,0,0-3.286-1.358,4.787,4.787,0,0,0-3.286,1.358,4.655,4.655,0,0,0,0,6.572,4.838,4.838,0,0,0,3.286,1.358Z" transform="translate(-2090.007 -1491.521)" fill="#fff"/>
        </g>
        <g id="Group_45603" data-name="Group 45603" clip-path="url(#clip-path-4)">
          <path id="Path_39371" data-name="Path 39371" d="M1315.835,1599.188a4.787,4.787,0,0,0,3.286-1.358,4.655,4.655,0,0,0,0-6.572,4.737,4.737,0,0,0-3.286-1.358,4.787,4.787,0,0,0-3.286,1.358,4.655,4.655,0,0,0,0,6.572,4.838,4.838,0,0,0,3.286,1.358Z" transform="translate(-1258.506 -1496.328)" fill="#fff"/>
        </g>
        <g id="Group_45604" data-name="Group 45604" clip-path="url(#clip-path-4)">
          <path id="Path_39373" data-name="Path 39373" d="M1325.835,1326.388a4.788,4.788,0,0,0,3.286-1.358,4.655,4.655,0,0,0,0-6.572,4.737,4.737,0,0,0-3.286-1.358,4.786,4.786,0,0,0-3.286,1.358,4.655,4.655,0,0,0,0,6.572,4.967,4.967,0,0,0,3.286,1.358Z" transform="translate(-1265.79 -1297.613)" fill="#fff"/>
        </g>
        <g id="Group_45605" data-name="Group 45605" clip-path="url(#clip-path-4)">
          <path id="Path_39375" data-name="Path 39375" d="M1106.948,1324.9s21.807,61.185,84.757,64.906,292.238,8.772,292.238,8.772v15.778H1058.5l20.4-86.224,28.053-3.232" transform="translate(-1074.441 -1303.294)" fill="#d1a868" opacity="0.42"/>
        </g>
      </g>
      <g id="Group_45607" data-name="Group 45607" transform="translate(65.486 129.748)">
        <path id="Path_39377" data-name="Path 39377" d="M746.8,1601.725a7.779,7.779,0,0,0-7.007-5.268c-7.577-.434-24.251-.652-34.734,4.644-13.9,7.006-27.13,18.847-20.857,17.109,6.246-1.738,23.98-14.42,31.991-13.2,7.984,1.195,28.569,2.091,30.443-.353A3.23,3.23,0,0,0,746.8,1601.725Z" transform="translate(-682.598 -1596.255)" fill="#ecc18f"/>
        <path id="Path_39378" data-name="Path 39378" d="M770.452,1623.1s-32.806-.054-35.956,2.688-21.21,13.334-18.928,14.2,20.639-7.414,24.387-8.446c3.72-1.032,32.4,3.1,33.267.027C774.091,1628.531,770.452,1623.1,770.452,1623.1Z" transform="translate(-706.469 -1615.809)" fill="#ecc18f"/>
        <path id="Path_39379" data-name="Path 39379" d="M806.2,1621.6s16.023-2.01,21.454-1.331C827.654,1620.272,816.737,1616.823,806.2,1621.6Z" transform="translate(-772.633 -1612.873)" fill="#e0a870"/>
      </g>
      <g id="Group_45609" data-name="Group 45609" transform="translate(122.543 101.3)">
        <path id="Path_39380" data-name="Path 39380" d="M895.495,1519.58l62.624-28.08-4.454,38.4s-47.226,8.554-56.378,8.12S895.495,1519.58,895.495,1519.58Z" transform="translate(-892.696 -1491.5)" fill="#573a1d"/>
        <g id="Group_45608" data-name="Group 45608" clip-path="url(#clip-path-42)">
          <path id="Path_39381" data-name="Path 39381" d="M868.639,1572.9s50.567-3.884,79.869-22.7v28.3l-81.308,6.327Z" transform="translate(-874.124 -1534.259)" fill="#635238"/>
        </g>
      </g>
      <g id="Group_45613" data-name="Group 45613" transform="translate(104.986 0)">
        <g id="Group_45612" data-name="Group 45612">
          <path id="Path_39383" data-name="Path 39383" d="M877.162,1178.235s-28.759-7.686-46-22c-17.3-14.366,42.338-40.247,61.565-37.558s28.433,59.908,6.626,95.647l-11.976-53.2C887.4,1161.1,888.867,1173.89,877.162,1178.235Z" transform="translate(-828.048 -1118.485)" fill="#f4ca89"/>
          <g id="Group_45610" data-name="Group 45610" clip-path="url(#clip-path-43)">
            <path id="Path_39384" data-name="Path 39384" d="M944,1243.33s26.207-15.507,27.863-25.854,14.692,45,11.379,65.34h0l-11.379-34.49-12.329,4.4L944,1243.33" transform="translate(-912.511 -1189.663)" opacity="0.42" fill="url(#linear-gradient-5)"/>
          </g>
          <g id="Group_45611" data-name="Group 45611" clip-path="url(#clip-path-43)">
            <path id="Path_39386" data-name="Path 39386" d="M824,1197.9s32.86,24.441,51.436,34.924l-10.89,6.6s-45.868-16.783-50.132-27.429C810.15,1201.376,824,1197.9,824,1197.9" transform="translate(-817.522 -1176.333)" fill="#fff" opacity="0.54"/>
          </g>
        </g>
        <circle id="Ellipse_1515" data-name="Ellipse 1515" cx="7.061" cy="7.061" r="7.061" transform="translate(63.833 93.153)" fill="#fff"/>
      </g>
    </g>
    <g id="Group_45619" data-name="Group 45619" transform="translate(502.832 348.412)">
      <g id="Group_45617" data-name="Group 45617">
        <g id="Group_45615" data-name="Group 45615">
          <path id="Path_39388" data-name="Path 39388" d="M1254.774,531.045H1227.4V518.661l27.374-32.561h13.09v33.24h6.789v11.65h-6.789v10.1h-13.09Zm0-11.678V502.34L1240.3,519.367Z" transform="translate(-1227.4 -486.1)" fill="url(#linear-gradient-2)"/>
          <path id="Path_39389" data-name="Path 39389" d="M1418.7,513.955q0-15.439,5.567-21.59,5.54-6.151,16.919-6.165a25.3,25.3,0,0,1,8.962,1.358,16.788,16.788,0,0,1,5.73,3.5,18.9,18.9,0,0,1,3.476,4.535,23.8,23.8,0,0,1,2.037,5.567,52.208,52.208,0,0,1,1.521,12.628q0,14.706-4.97,21.563c-3.313,4.562-9.043,6.816-17.163,6.816-4.562,0-8.229-.733-11.026-2.173a17.843,17.843,0,0,1-6.9-6.382,24.194,24.194,0,0,1-3.042-8.174A54.058,54.058,0,0,1,1418.7,513.955Zm14.909.027c0,6.9.6,11.6,1.82,14.122s2.987,3.775,5.3,3.775a5.585,5.585,0,0,0,3.965-1.6,9.891,9.891,0,0,0,2.471-5.078,54.189,54.189,0,0,0,.788-10.809c0-7.2-.6-12-1.82-14.475s-3.042-3.721-5.486-3.721a5.534,5.534,0,0,0-5.377,3.775C1434.152,502.494,1433.609,507.165,1433.609,513.982Z" transform="translate(-1366.748 -486.173)" fill="url(#linear-gradient-2)"/>
          <path id="Path_39390" data-name="Path 39390" d="M1625.974,531.045H1598.6V518.661l27.375-32.561h13.09v33.24h6.789v11.65h-6.789v10.1h-13.09Zm0-11.678V502.34L1611.5,519.367Z" transform="translate(-1497.793 -486.1)" fill="url(#linear-gradient-2)"/>
        </g>
      </g>
    </g>
  </g>
</svg>
