<svg id="Group_44809" data-name="Group 44809" xmlns="http://www.w3.org/2000/svg" width="116.615" height="106.524" viewBox="0 0 116.615 106.524">
  <path id="Path_38426" data-name="Path 38426" d="M150.415,269.044A23.48,23.48,0,0,1,127,292.455H57.211A23.48,23.48,0,0,1,33.8,269.044V232.611A23.48,23.48,0,0,1,57.211,209.2H127a23.48,23.48,0,0,1,23.411,23.411v36.433Z" transform="translate(-33.8 -185.931)" fill="#f4ca89"/>
  <g id="Group_44802" data-name="Group 44802" transform="translate(30.653)">
    <path id="Path_38427" data-name="Path 38427" d="M82.43,205.052a21.206,21.206,0,0,1,20.923-20.923c11.559-.219,20.7,9.657,20.923,20.923.073,4.316,6.8,4.39,6.731,0A28.014,28.014,0,0,0,103.354,177.4c-15.29-.293-27.361,12.8-27.654,27.654-.073,4.316,6.657,4.316,6.731,0Z" transform="translate(-75.699 -177.393)" fill="#635238"/>
  </g>
  <g id="Group_44808" data-name="Group 44808" transform="translate(31.751 38.34)">
    <g id="Group_44803" data-name="Group 44803">
      <path id="Path_38428" data-name="Path 38428" d="M130.313,243.627H116.486V229.8H91.027v13.827H77.2v25.386H91.027V282.84h25.459V269.013h13.827Z" transform="translate(-77.2 -229.8)" fill="#fff"/>
    </g>
    <g id="Group_44807" data-name="Group 44807" transform="translate(14.339 16.897)">
      <path id="Path_38429" data-name="Path 38429" d="M118.985,270.336c0,2.487-2.561,4.536-5.706,4.536h-6.072c-3.146,0-5.706-2.048-5.706-4.536s2.561-4.536,5.706-4.536h6.072C116.424,265.8,118.985,267.848,118.985,270.336Z" transform="translate(-98.062 -256.36)" fill="#635238"/>
      <g id="Group_44806" data-name="Group 44806">
        <g id="Group_44804" data-name="Group 44804">
          <path id="Path_38430" data-name="Path 38430" d="M110.592,256.63a3.192,3.192,0,1,1-3.146-3.731C109.2,252.826,110.592,254.509,110.592,256.63Z" transform="translate(-98.813 -252.897)" fill="#635238"/>
          <path id="Path_38431" data-name="Path 38431" d="M102.067,261.946a2.675,2.675,0,1,1-2.634-3.146A2.907,2.907,0,0,1,102.067,261.946Z" transform="translate(-96.8 -254.481)" fill="#635238"/>
        </g>
        <g id="Group_44805" data-name="Group 44805" transform="translate(12.656)">
          <path id="Path_38432" data-name="Path 38432" d="M114.1,256.63a3.192,3.192,0,1,0,3.146-3.731C115.49,252.826,114.1,254.509,114.1,256.63Z" transform="translate(-114.1 -252.897)" fill="#635238"/>
          <path id="Path_38433" data-name="Path 38433" d="M123,261.946a2.675,2.675,0,1,0,2.634-3.146A2.907,2.907,0,0,0,123,261.946Z" transform="translate(-116.489 -254.481)" fill="#635238"/>
        </g>
      </g>
    </g>
  </g>
</svg>
