<svg xmlns="http://www.w3.org/2000/svg" width="20.369" height="18.646" viewBox="0 0 20.369 18.646">
  <g id="Group_40954" data-name="Group 40954" transform="translate(-672.815 -693.111)">
    <path id="Icon_ionic-ios-arrow-forward" data-name="Icon ionic-ios-arrow-forward" d="M19.382,16.377l-7.708-7.7a1.45,1.45,0,0,1,0-2.056,1.468,1.468,0,0,1,2.062,0l8.733,8.727a1.453,1.453,0,0,1,.042,2.007l-8.769,8.787a1.456,1.456,0,0,1-2.062-2.056Z" transform="translate(699.381 688.864) rotate(90)" fill="#fff"/>
    <path id="Icon_ionic-ios-arrow-forward-2" data-name="Icon ionic-ios-arrow-forward" d="M19.382,16.377l-7.708-7.7a1.45,1.45,0,0,1,0-2.056,1.468,1.468,0,0,1,2.062,0l8.733,8.727a1.453,1.453,0,0,1,.042,2.007l-8.769,8.787a1.456,1.456,0,0,1-2.062-2.056Z" transform="translate(699.381 681.864) rotate(90)" fill="#fff"/>
  </g>
</svg>
