<svg xmlns="http://www.w3.org/2000/svg" width="117.692" height="117.694" viewBox="0 0 117.692 117.694">
  <g id="Group_45155" data-name="Group 45155" transform="translate(-60.166 33.917)">
    <g id="svgexport-10_11_" data-name="svgexport-10 (11)" transform="translate(60.166 -33.917)">
      <g id="Page-1" transform="translate(0 0)">
        <g id="_001---Vet" data-name="001---Vet">
          <path id="Shape" d="M61.892,88.462a15.687,15.687,0,0,1,3.737-16.393,30.9,30.9,0,0,0,4.477-6.095c1.919-3.134,3.886-6.341,7.656-8.024V52.428a8.44,8.44,0,0,1-5.641,2.163,9.739,9.739,0,0,1-6.969-3.207,16.063,16.063,0,0,1-4.174-8.907,16.059,16.059,0,0,1,1.5-9.72,9.458,9.458,0,0,1,6.963-5.3A9.621,9.621,0,0,1,77.762,30.8V14.712A14.729,14.729,0,0,0,63.05,0H54.644A14.729,14.729,0,0,0,39.932,14.712V35.728a4.2,4.2,0,0,1-4.2,4.2H14.712A14.729,14.729,0,0,0,0,54.644V63.05A14.729,14.729,0,0,0,14.712,77.762H35.728a4.2,4.2,0,0,1,4.2,4.2v21.017a14.728,14.728,0,0,0,14.712,14.712H63.05a14.728,14.728,0,0,0,14.712-14.712V92.816a11.828,11.828,0,0,1-6.5,1.759,9.668,9.668,0,0,1-9.373-6.114ZM14.712,48.338a6.305,6.305,0,0,0-6.305,6.305,2.1,2.1,0,1,1-4.2,0A10.521,10.521,0,0,1,14.712,44.135a2.1,2.1,0,1,1,0,4.2Zm10.508,0h-2.1a2.1,2.1,0,1,1,0-4.2h2.1a2.1,2.1,0,1,1,0,4.2ZM56.644,69.345a10.74,10.74,0,0,1-9.115-6.473c-2.522-5.216-1.19-11.1,2.982-13.125s9.619.574,12.148,5.788,1.192,11.1-2.98,13.123A6.9,6.9,0,0,1,56.644,69.345Z" transform="translate(0 0)" fill="#635238"/>
          <g id="Group_45159" data-name="Group 45159" transform="translate(50.429 31.577)">
            <path id="Shape-2" data-name="Shape" d="M35.972,15.067a5.38,5.38,0,0,0-3.842,3.1,11.82,11.82,0,0,0-1.051,7.16A11.845,11.845,0,0,0,34.106,31.9a4.834,4.834,0,0,0,8.407-1.208A11.115,11.115,0,0,0,43.7,25.506v-.063a13.78,13.78,0,0,0-.141-1.913c-.729-5.073-4.195-8.945-7.587-8.463Z" transform="translate(-16.367 -15.023)" fill="#f4ca89"/>
            <path id="Shape-3" data-name="Shape" d="M27.158,25.337a2.837,2.837,0,0,0-1.261.28c-2.049.992-2.522,4.432-1.032,7.507s4.479,4.834,6.534,3.84,2.522-4.432,1.03-7.507a6.664,6.664,0,0,0-5.271-4.119Z" transform="translate(-23.995 -3.664)" fill="#f4ca89"/>
            <path id="Shape-4" data-name="Shape" d="M60.26,36.219C57.6,31.871,55.84,29,49.884,29s-7.715,2.871-10.376,7.219a34.65,34.65,0,0,1-5.1,6.883A11.662,11.662,0,0,0,31.6,54.914a5.481,5.481,0,0,0,5.483,3.51,8.253,8.253,0,0,0,5.294-1.768,12.787,12.787,0,0,1,15.014,0,8.253,8.253,0,0,0,5.294,1.768,5.481,5.481,0,0,0,5.483-3.51A11.662,11.662,0,0,0,65.359,43.1,34.651,34.651,0,0,1,60.26,36.219Z" transform="translate(-16.246 0.371)" fill="#f4ca89"/>
            <path id="Shape-5" data-name="Shape" d="M55.613,25.328c-.578,4.023-3.556,9.037-7.587,8.463s-5.475-6.208-4.895-10.258c.63-4.342,3.76-9.014,7.587-8.463C54.722,15.645,56.2,21.259,55.613,25.328Z" transform="translate(-3.048 -15.025)" fill="#f4ca89"/>
            <path id="Shape-6" data-name="Shape" d="M60.006,33.128c-1.492,3.073-4.485,4.834-6.532,3.84s-2.522-4.432-1.032-7.507c1.261-2.6,4.2-4.966,6.532-3.84C61.023,26.613,61.5,30.053,60.006,33.128Z" transform="translate(6.386 -3.669)" fill="#f4ca89"/>
          </g>
        </g>
      </g>
    </g>
  </g>
</svg>
