<svg xmlns="http://www.w3.org/2000/svg" width="32.032" height="32.033" viewBox="0 0 32.032 32.033">
  <g id="home" transform="translate(-60.166 33.917)">
    <g id="svgexport-10_11_" data-name="svgexport-10 (11)" transform="translate(60.166 -33.917)">
      <g id="Page-1" transform="translate(0 0)">
        <g id="_001---Vet" data-name="001---Vet">
          <path id="Shape" d="M16.845,24.077a4.27,4.27,0,0,1,1.017-4.462,8.409,8.409,0,0,0,1.218-1.659,4.886,4.886,0,0,1,2.084-2.184v-1.5a2.3,2.3,0,0,1-1.535.589,2.651,2.651,0,0,1-1.9-.873A4.372,4.372,0,0,1,16.6,11.561,4.371,4.371,0,0,1,17,8.915a2.574,2.574,0,0,1,1.9-1.441,2.619,2.619,0,0,1,2.266.91V4a4.009,4.009,0,0,0-4-4H14.872a4.009,4.009,0,0,0-4,4v5.72a1.144,1.144,0,0,1-1.144,1.144H4a4.009,4.009,0,0,0-4,4V17.16a4.009,4.009,0,0,0,4,4h5.72a1.144,1.144,0,0,1,1.144,1.144v5.72a4.009,4.009,0,0,0,4,4H17.16a4.009,4.009,0,0,0,4-4V25.262a3.219,3.219,0,0,1-1.768.479,2.631,2.631,0,0,1-2.551-1.664ZM4,13.156a1.716,1.716,0,0,0-1.716,1.716.572.572,0,1,1-1.144,0A2.864,2.864,0,0,1,4,12.012a.572.572,0,1,1,0,1.144Zm2.86,0H6.292a.572.572,0,1,1,0-1.144h.572a.572.572,0,1,1,0,1.144Zm8.553,5.717a2.923,2.923,0,0,1-2.481-1.762,2.627,2.627,0,0,1,.812-3.572,2.625,2.625,0,0,1,3.306,1.575,2.625,2.625,0,0,1-.811,3.572A1.879,1.879,0,0,1,15.417,18.874Z" transform="translate(0 0)" fill="#fff"/>
          <g id="Group_45159" data-name="Group 45159" transform="translate(13.725 8.594)">
            <path id="Shape-2" data-name="Shape" d="M32.294,15.038a1.464,1.464,0,0,0-1.046.843,3.461,3.461,0,0,0,.538,3.738,1.316,1.316,0,0,0,2.288-.329,3.025,3.025,0,0,0,.323-1.411v-.017a3.75,3.75,0,0,0-.038-.521c-.2-1.381-1.142-2.434-2.065-2.3Z" transform="translate(-26.958 -15.026)" fill="#f4ca89"/>
            <path id="Shape-3" data-name="Shape" d="M24.856,25.337a.772.772,0,0,0-.343.076c-.558.27-.686,1.206-.281,2.043s1.219,1.316,1.778,1.045.686-1.206.28-2.043a1.814,1.814,0,0,0-1.435-1.121Z" transform="translate(-23.995 -19.438)" fill="#f4ca89"/>
            <path id="Shape-4" data-name="Shape" d="M38.984,30.965C38.26,29.781,37.781,29,36.16,29s-2.1.781-2.824,1.965a9.431,9.431,0,0,1-1.389,1.873,3.174,3.174,0,0,0-.764,3.215,1.492,1.492,0,0,0,1.492.955,2.246,2.246,0,0,0,1.441-.481,3.48,3.48,0,0,1,4.086,0,2.246,2.246,0,0,0,1.441.481,1.492,1.492,0,0,0,1.492-.955,3.174,3.174,0,0,0-.765-3.215A9.431,9.431,0,0,1,38.984,30.965Z" transform="translate(-27.005 -21.006)" fill="#f4ca89"/>
            <path id="Shape-5" data-name="Shape" d="M46.439,17.829c-.157,1.095-.968,2.46-2.065,2.3s-1.49-1.69-1.332-2.792c.172-1.182,1.023-2.453,2.065-2.3C46.2,15.194,46.6,16.722,46.439,17.829Z" transform="translate(-32.132 -15.025)" fill="#f4ca89"/>
            <path id="Shape-6" data-name="Shape" d="M53.867,27.455c-.406.836-1.221,1.316-1.778,1.045s-.686-1.206-.281-2.043c.343-.707,1.144-1.352,1.778-1.045C54.144,25.681,54.273,26.618,53.867,27.455Z" transform="translate(-35.797 -19.437)" fill="#f4ca89"/>
          </g>
        </g>
      </g>
    </g>
  </g>
</svg>
