<svg xmlns="http://www.w3.org/2000/svg" width="21.834" height="14.739" viewBox="0 0 21.834 14.739">
  <path id="Icon_zocial-email" data-name="Icon zocial-email" d="M.072,17.5V5.373q0-.021.063-.4l7.138,6.106L.156,17.922A1.784,1.784,0,0,1,.072,17.5Zm.947-13.37a.907.907,0,0,1,.358-.063H20.6a1.192,1.192,0,0,1,.379.063l-7.159,6.127-.947.758L11,12.553,9.126,11.016l-.947-.758Zm.021,14.612,7.18-6.885L11,14.111l2.779-2.253,7.18,6.885a1.011,1.011,0,0,1-.358.063H1.377a.954.954,0,0,1-.337-.063Zm13.686-7.664,7.117-6.106a1.257,1.257,0,0,1,.063.4V17.5a1.614,1.614,0,0,1-.063.421Z" transform="translate(-0.072 -4.068)" fill="#fff"/>
</svg>
