<svg id="money" xmlns="http://www.w3.org/2000/svg" width="156.555" height="118.069" viewBox="0 0 156.555 118.069">
  <g id="Group_41210" data-name="Group 41210" transform="translate(0)">
    <g id="Group_41145" data-name="Group 41145" transform="translate(0 34.346)">
      <g id="Group_41058" data-name="Group 41058" transform="translate(0 0)">
        <g id="Group_41057" data-name="Group 41057">
          <g id="Group_41055" data-name="Group 41055" transform="translate(0 29.037)">
            <path id="Path_31916" data-name="Path 31916" d="M157.354,47.925v4.229a1.694,1.694,0,0,1-1.123,1.375L103.178,80.62a6.828,6.828,0,0,1-5.524,0L2.152,32.174C1.384,31.785,1,31.265,1,30.747V26.518c0,.518.384,1.038,1.152,1.427L97.684,76.389a6.856,6.856,0,0,0,5.494,0L156.231,49.3a1.642,1.642,0,0,0,1.123-1.375Z" transform="translate(-1 -26.518)" fill="#635238"/>
          </g>
          <g id="Group_41056" data-name="Group 41056" transform="translate(0.004)">
            <path id="Path_31917" data-name="Path 31917" d="M156.2,65.41c1.528.775,1.555,2.028.037,2.8L103.187,95.291a6.816,6.816,0,0,1-5.508-.009L2.152,46.835c-1.528-.775-1.536-2.018-.018-2.793L55.181,16.964a6.773,6.773,0,0,1,5.489,0Z" transform="translate(-1.001 -16.383)" fill="#ee5550"/>
          </g>
        </g>
      </g>
      <g id="Group_41144" data-name="Group 41144" transform="translate(0.2)">
        <g id="Group_41059" data-name="Group 41059" transform="translate(37.039 31.457)">
          <path id="Path_31918" data-name="Path 31918" d="M19.82,28.788l-.637.325-2.461.066c.434.22.642.479.625.737s-.2.469-.579.66a3.156,3.156,0,0,1-1.633.335,4.29,4.29,0,0,1-1.694-.44,2.018,2.018,0,0,1-1.022-1.033l.977-.153a1.634,1.634,0,0,0,.832.842,2.266,2.266,0,0,0,.886.239,1.527,1.527,0,0,0,.845-.143c.244-.125.318-.278.28-.45a1.329,1.329,0,0,0-.643-.535l-.583-.22.618-.315,2.386-.086-1.735-.88.731-.373Z" transform="translate(-12.417 -27.363)" fill="#fff"/>
        </g>
        <g id="Group_41060" data-name="Group 41060" transform="translate(32.685 29.697)">
          <path id="Path_31919" data-name="Path 31919" d="M17.6,27.16a1.144,1.144,0,0,1,.681.727c.039.287-.147.536-.6.765a2.8,2.8,0,0,1-.9.249,11.709,11.709,0,0,1-1.56.086L12.945,29l2.188,1.11-.769.392-3.281-1.664.693-.354h2.895c.658-.01,1.128-.019,1.466-.038a2.179,2.179,0,0,0,.769-.182c.206-.105.28-.22.28-.373-.02-.144-.153-.268-.379-.382a2.809,2.809,0,0,0-1.58-.191l-.266-.517a5.786,5.786,0,0,1,1.409-.009,3.424,3.424,0,0,1,1.225.373Z" transform="translate(-11.083 -26.748)" fill="#fff"/>
        </g>
        <g id="Group_41061" data-name="Group 41061" transform="translate(30.837 27.918)">
          <path id="Path_31920" data-name="Path 31920" d="M16.067,27.007l-4.778,2.439-.773-.392,4.047-2.066L13.6,26.5l.731-.373Z" transform="translate(-10.516 -26.127)" fill="#fff"/>
        </g>
        <g id="Group_41063" data-name="Group 41063" transform="translate(46.861 36.354)">
          <path id="Path_31922" data-name="Path 31922" d="M22.609,30.468l-.731.373L19.86,29.818l-1.18.6a2.562,2.562,0,0,1,.848.258c.452.229.7.488.757.784.058.316-.147.574-.6.8a3.346,3.346,0,0,1-1.653.325,3.85,3.85,0,0,1-1.713-.393c-.641-.325-.926-.7-.891-1.119L16.446,31l.02.144c0,.057.077.153.171.3a1.764,1.764,0,0,0,.529.382,2.191,2.191,0,0,0,.81.22,1.661,1.661,0,0,0,.883-.163c.262-.134.356-.3.316-.468a1.1,1.1,0,0,0-.548-.488,3.531,3.531,0,0,0-1.092-.325l.035-.363,2.286-1.167Z" transform="translate(-15.429 -29.072)" fill="#fff"/>
        </g>
        <g id="Group_41064" data-name="Group 41064" transform="translate(52.511 40.225)">
          <path id="Path_31923" data-name="Path 31923" d="M18.275,30.426c.073,0,.143.011.213.021l-.211.132-.469.182-.545-.029-.1.021a.858.858,0,0,1,.231-.164,1.716,1.716,0,0,1,.883-.163Z" transform="translate(-17.161 -30.423)" fill="#cb4844"/>
        </g>
        <g id="Group_41065" data-name="Group 41065" transform="translate(116.337 38.162)">
          <path id="Path_31924" data-name="Path 31924" d="M42.781,31.386c.04.344-.24.66-.821.956a3.95,3.95,0,0,1-1.9.431,4.641,4.641,0,0,1-2.108-.555L36.73,31.6,40.44,29.7l1.282.65c.66.335,1.038.679,1.059,1.033Zm-2.776.937a2.578,2.578,0,0,0,1.295-.3c.862-.44.8-.89-.177-1.387l-.641-.325-2.53,1.292.7.354a3.013,3.013,0,0,0,1.356.363" transform="translate(-36.73 -29.703)" fill="#fff"/>
        </g>
        <g id="Group_41066" data-name="Group 41066" transform="translate(122.957 40.945)">
          <path id="Path_31925" data-name="Path 31925" d="M44.242,32.147l-.562.287-1.131-.574L39.4,33.467l-.641-.325,3.147-1.607-1.132-.574.562-.287Z" transform="translate(-38.76 -30.674)" fill="#fff"/>
        </g>
        <g id="Group_41067" data-name="Group 41067" transform="translate(22.262 34.336)">
          <path id="Path_31926" data-name="Path 31926" d="M14.839,29.831l-.637.325-2.188-1.11-1.087.555,1.962,1-.618.315-1.962-.995-1.087.555,2.263,1.148-.637.325-2.961-1.5,4.067-2.076Z" transform="translate(-7.887 -28.367)" fill="#fff"/>
        </g>
        <g id="Group_41068" data-name="Group 41068" transform="translate(18 32.175)">
          <path id="Path_31927" data-name="Path 31927" d="M10.436,30.138l-.405,1.3L9.164,31l.387-1.2-.924-.469-1.368.7-.679-.344,4.067-2.076,1.527.775c.623.316.981.593,1.021.841.057.24-.148.479-.6.708a2.856,2.856,0,0,1-2.161.2Zm-.324-.68a2.459,2.459,0,0,0,1,.316,1.65,1.65,0,0,0,.789-.192c.262-.134.374-.268.316-.392-.038-.115-.246-.278-.623-.469l-.887-.45-1.462.746Z" transform="translate(-6.58 -27.613)" fill="#fff"/>
        </g>
        <g id="Group_41069" data-name="Group 41069" transform="translate(41.141 43.911)">
          <path id="Path_31928" data-name="Path 31928" d="M20.627,33.173l-.637.325L17.8,32.389l-1.087.555,1.962.995-.618.316L16.1,33.259l-1.087.555,2.244,1.138-.637.325-2.942-1.492,4.067-2.076Z" transform="translate(-13.675 -31.709)" fill="#fff"/>
        </g>
        <g id="Group_41070" data-name="Group 41070" transform="translate(35.37 40.984)">
          <path id="Path_31929" data-name="Path 31929" d="M20.612,33.041l-4.066,2.076-.7-.354,3.186-1.626-4.264.718-.4-.2,1.416-2.162L12.6,33.118l-.7-.354.834-.425.688-.351,2.544-1.3,1.075.545-1.3,1.932,3.793-.67Z" transform="translate(-11.906 -30.688)" fill="#fff"/>
        </g>
        <g id="Group_41142" data-name="Group 41142">
          <g id="Group_41071" data-name="Group 41071" transform="translate(54.577 6.216)">
            <path id="Path_31930" data-name="Path 31930" d="M26.027,23.386l-.123-.053-8.109-4.112.825-.421a2.867,2.867,0,0,1,2.33,0L28,22.377Z" transform="translate(-17.794 -18.552)" fill="#fee182"/>
          </g>
          <g id="Group_41072" data-name="Group 41072" transform="translate(51.147 7.104)">
            <path id="Path_31931" data-name="Path 31931" d="M26.642,22.362a9.215,9.215,0,0,0-4.67.684l-5.23-2.652,3-1.531Z" transform="translate(-16.743 -18.862)" fill="#fee182"/>
          </g>
          <g id="Group_41073" data-name="Group 41073" transform="translate(50.717 8.635)">
            <path id="Path_31932" data-name="Path 31932" d="M22.271,22.049c-.071.033-.142.067-.211.1s-.148.078-.218.118l-5.231-2.653.43-.219Z" transform="translate(-16.611 -19.397)" fill="#485f69"/>
          </g>
          <g id="Group_41074" data-name="Group 41074" transform="translate(47.287 10.385)">
            <path id="Path_31933" data-name="Path 31933" d="M15.991,20.008l6.9,3.5a2,2,0,0,0,.775.832l-8.108-4.112Z" transform="translate(-15.559 -20.008)" fill="#485f69"/>
          </g>
          <g id="Group_41075" data-name="Group 41075" transform="translate(55.138 10.869)">
            <path id="Path_31934" data-name="Path 31934" d="M25.405,20.687c1.528.775,1.329,2.143-.432,3.042a7.482,7.482,0,0,1-6,.24c-1.509-.765-1.31-2.133.47-3.042A7.471,7.471,0,0,1,25.405,20.687Z" transform="translate(-17.967 -20.176)" fill="#fee182"/>
          </g>
          <g id="Group_41076" data-name="Group 41076" transform="translate(54.505 10.547)">
            <path id="Path_31935" data-name="Path 31935" d="M26.064,24.06c-.065.037-.13.072-.2.108s-.153.076-.231.111a9.234,9.234,0,0,1-4.675.681,6.474,6.474,0,0,1-1.647-.4l-.108-.046c-.081-.035-.16-.071-.236-.11s-.136-.072-.2-.11c-.036-.021-.072-.042-.106-.063a2,2,0,0,1-.775-.832c-.35-.778.1-1.683,1.328-2.378.07-.04.142-.079.218-.118s.139-.069.211-.1a9.215,9.215,0,0,1,4.67-.684,6.429,6.429,0,0,1,1.639.393l.123.053c.074.032.147.065.217.1s.147.079.216.12l.09.054a2.039,2.039,0,0,1,.787.838c.357.784-.1,1.691-1.322,2.381Zm-6.648.118a7.483,7.483,0,0,0,6-.24c1.761-.9,1.959-2.267.431-3.042a7.471,7.471,0,0,0-5.958.239c-1.78.909-1.979,2.277-.47,3.042" transform="translate(-17.773 -20.064)" fill="#485f69"/>
          </g>
          <g id="Group_41077" data-name="Group 41077" transform="translate(63.332 11.325)">
            <path id="Path_31936" data-name="Path 31936" d="M20.479,20.335l8.124,4.12-.431.22-6.907-3.5a2.039,2.039,0,0,0-.787-.838Z" transform="translate(-20.479 -20.335)" fill="#485f69"/>
          </g>
          <g id="Group_41078" data-name="Group 41078" transform="translate(45.946 10.605)">
            <path id="Path_31937" data-name="Path 31937" d="M24.6,24.2c.034.021.07.042.106.063l-1.976,1.009c-5.14-2.963-9.019-3.764-7.062-4.763l.824-.421Z" transform="translate(-15.148 -20.084)" fill="#fee182"/>
          </g>
          <g id="Group_41079" data-name="Group 41079" transform="translate(53.525 14.781)">
            <path id="Path_31938" data-name="Path 31938" d="M19.883,21.761,17.906,22.77l-.434-.22,1.977-1.009q.093.057.2.11c.076.038.155.074.236.109Z" transform="translate(-17.472 -21.542)" fill="#485f69"/>
          </g>
          <g id="Group_41080" data-name="Group 41080" transform="translate(62.797 12.162)">
            <path id="Path_31939" data-name="Path 31939" d="M20.315,23.009c1.224-.69,1.679-1.6,1.322-2.381l6.907,3.5-3,1.531Z" transform="translate(-20.315 -20.628)" fill="#fee182"/>
          </g>
          <g id="Group_41081" data-name="Group 41081" transform="translate(62.366 14.543)">
            <path id="Path_31940" data-name="Path 31940" d="M20.614,21.459l5.23,2.652-.43.22-5.231-2.653c.078-.036.155-.072.231-.111s.135-.071.2-.108Z" transform="translate(-20.183 -21.459)" fill="#485f69"/>
          </g>
          <g id="Group_41082" data-name="Group 41082" transform="translate(57.69 14.763)">
            <path id="Path_31941" data-name="Path 31941" d="M18.749,22.216a9.234,9.234,0,0,0,4.675-.681l5.231,2.653-.4.205-2.6,1.325Z" transform="translate(-18.749 -21.535)" fill="#fee182"/>
          </g>
          <g id="Group_41083" data-name="Group 41083" transform="translate(56.043 15.046)">
            <path id="Path_31942" data-name="Path 31942" d="M19.891,22.031l6.907,3.5-.431.22-8.123-4.12a6.474,6.474,0,0,0,1.647.4Z" transform="translate(-18.244 -21.634)" fill="#485f69"/>
          </g>
          <g id="Group_41084" data-name="Group 41084" transform="translate(58.729 18.429)">
            <path id="Path_31943" data-name="Path 31943" d="M20.785,23.686a.735.735,0,0,0-.037.076l-.112.268a1.862,1.862,0,0,1-.868-.517l-.283-.143c-.245-.124-.245-.163-.3-.344a.69.69,0,0,0-.115-.211Z" transform="translate(-19.068 -22.815)" fill="#ee5550"/>
          </g>
          <g id="Group_41086" data-name="Group 41086" transform="translate(51.336 38.831)">
            <path id="Path_31945" data-name="Path 31945" d="M21.481,32.031c0,.287-.222.555-.69.794a3.511,3.511,0,0,1-1.614.344,3.815,3.815,0,0,1-1.619-.383c-.773-.392-.946-.841-.554-1.329a3.176,3.176,0,0,1,1.085-.8,6.43,6.43,0,0,1,1.369-.545,5.123,5.123,0,0,1,1.2-.172,3.986,3.986,0,0,1,1.883.382c.039.02.075.041.113.061a1.528,1.528,0,0,1,.814.886l-1,.105-.19-.345-.341-.287c-.074-.037-.148-.07-.224-.1a2.449,2.449,0,0,0-1.15-.159,4.249,4.249,0,0,0-1.482.43,3.79,3.79,0,0,1,.712.053c.051.007.1.015.154.024a2.913,2.913,0,0,1,.867.268c.434.22.642.478.663.775Zm-2.309.622a1.861,1.861,0,0,0,.864-.172.658.658,0,0,0,.392-.45c0-.172-.153-.325-.417-.459a2.211,2.211,0,0,0-.71-.218c-.069-.009-.14-.017-.213-.021a1.716,1.716,0,0,0-.883.163.858.858,0,0,0-.231.164.4.4,0,0,0-.123.285.651.651,0,0,0,.417.478,2.265,2.265,0,0,0,.9.229" transform="translate(-16.801 -29.936)" fill="#fff"/>
          </g>
          <g id="Group_41087" data-name="Group 41087" transform="translate(35.251 12.394)">
            <path id="Path_31946" data-name="Path 31946" d="M33.674,47.175c.2.132.234.287.133.415a4.041,4.041,0,0,0-2-.444,5.123,5.123,0,0,0-1.2.172,6.43,6.43,0,0,0-1.369.545,3.176,3.176,0,0,0-1.085.8,3.421,3.421,0,0,0-.3-.171,2.655,2.655,0,0,0-.907-.288,5.089,5.089,0,0,0-1.633.354,19.936,19.936,0,0,1-2.179.191c-.66.049-1.224.254-1.336-.124a.131.131,0,0,0-.073-.172c-1.178.6-1.991.842-2.859.038l-.432.2c-.669.1-.326-.266-.828-.23l-.507.163a3.491,3.491,0,0,1-1.37.411A.29.29,0,0,1,15.582,49a.221.221,0,0,0-.244-.01c-.206.105.095.24,0,.344-.337.345-1.372-.029-1.9.3-.629.393-.387.675.067.964l-.688.351a2.6,2.6,0,0,1-.605-.211,1.316,1.316,0,0,1-.347-.244l1.706-2.263a.948.948,0,0,0,.329-.06l.469-.278a7.658,7.658,0,0,1,1.274-.44c.413-.153.505-.373.881-.526l.6-.172c1.272-.05-.333.191,3.414-1.11l.507-.124a5.907,5.907,0,0,0,1.2-.689c.188-.134,0-.23-.115-.363l-.115-.364c-.039-.191-.284-.411-.041-.574.5-.339.2-.121.727-.928l.28-.3-.19-.287.525-.268.376-.1.093-.22c.093-.105.449-.287.638-.192l.415.249.375-.153.357-.048.244.029.431-.277c.225-.115.619-.278.6-.459l-.15-.134c-.361-.04-.517.211-.753-.153l-.247-.239-.058-.316-.153-.325.036-.249-.077-.249-.039-.287c-.208-.287-.064-.784-.636-1.075a3.134,3.134,0,0,1-1.179-.628l-.078-.268-.039-.268-.132-.124.129-.258.393-.162c.132-.144-.161-.154-.358-.24-.423-.213.237-.382.09-.622-.132-.162-.226-.076-.021-.239.2-.291.747-.8.556-1.282-.449.191-.315.7-1.028.755-.192-.9.359-.959.575-1.253.04-.108-.053-.184-.227-.1-.438-.221-.256-.354-.023-.584.589-.6-.1-1.041,1.154-1.683,1.713-.875,1.1-.953,1.667-1.062l.4.182c.394-.182-.228-.459-.23-.67,0-.112-.047.4.068-1.09l.356-.22-.433-.2.262-.134-.49-.134c.169-.163.618-.374.693-.546.073-.21-.473-.277-.454-.5-.084-.88-1.432-1.43-2.38-1.741a12.47,12.47,0,0,0-4.1-.153,6.206,6.206,0,0,0-.628-.091c.334-.06.538-.184.907-.225.395-.048.79.019,1.071-.182.2-.12.274-.319.06-.428l-.42-.156c-.151-.115-.038-.1-.039-.191-.058-.2-.53-.459-.23-.688.881-.691,1.36.2,2.031.057l.336-.287a3.546,3.546,0,0,1-1.188-.468c-.264-.172-.341-.555.3-.478l.753.21.264.134-.074.153c.112.286.392-.093.431-.354,0-.229-.605-.459-.174-.641a.932.932,0,0,0,.6.246l6.327,3.209a.894.894,0,0,0,.305.155l.263.134,4.518,2.291a.69.69,0,0,1,.115.211c.1.328.173.248.586.488a1.863,1.863,0,0,0,.868.517l.112-.268c.43.1,1.68.851,2.933.211l3.852-1.966c.178.031.364.056.554.081,5.347.712,15.028,5.407,8.764,3.644a9.563,9.563,0,0,0-1.505-.153c-1.847-.245-.549-.386-2.707-.019a7.5,7.5,0,0,0-1.239.152c-.546.193-.446.438-1.674-.085-.391-.2-.824-.4-1.188-.6-.257-.16-.45-.352-.772-.3l-.262.153c-.622.055-.81-.315-1.371.316-.267.287-1.223.485-.5.851.673.312-.386.567.033.78a1.281,1.281,0,0,0,1.323-.339c.223-.373-.531-.982.519-1.263.39-.095,1.121.036,1.242.306a2.047,2.047,0,0,0-.937.344l-.13.278.432-.009.449-.345.583.086.452.249.114.191.206-.144.453.249.021.277.377.23c.177.741-.079.742.306.937.191.1.279.152.265.249l0,.306.133.3c-.167.162-.957.182-.5.43l.49.192c.132.144-.018.143-.112.287l.078.325c.152.134.3.134.039.268-.346-.021-.374-.171-.659-.316l-.395.125c-.264-.223-.006-.545-.366-.728-.447.144-.2.4-.236.632l-.337.268-.169.029-.337.115-.494-.631c-.244.009.455.555.042.689a1.145,1.145,0,0,1-.548-.45V33.64l-.151-.134c-.253-.286.351-.411-.852-.871-.085-.043-.32-.074-.43-.13-.06-.03-.082-.068-.023-.118l.508-.029.923.45.319-.22.677.038.3-.306-.058-.354-.152-.21c-.227-.152-.415-.21-.435-.411-.039-.172.017-.22-.228-.344-1.068-.541-1.242.411-1.595.488l-.357-.009-.339-.115L42,31.584c-.054.181.266.382.211.564-.285-.144-.253-.266-.6-.363l-.357-.106-.152-.191c-.135-.068-.49-.019-.536-.043l.327-.234c-.282-.086-.582.067-.845.029-.4-.048-.548-.258-1.036-.22l-.583.163-.732.009a1.141,1.141,0,0,0-.62.029c-.391.146-.116.132.115.325.189.172-.093.22-.243.354-.114.157.745.211.794.574.058.182-.016.334.154.517l.453.287c.491.372.049.325-.371.689-.15.153-.374.325-.242.488l.434.162c.413-.076.524-.44.9-.574l.489-.019c.453.23.692.257.956-.431.092-.277.468-.315.824-.459l.9-.44.359.258.774.411.021.277.076.287.114.23-.58.334.83.421c.376.058.77-.3,1.071-.2l-.093.22-.149.211-.2.7-.129.258.077.287-.149.172.114.249c.152.153.341.268-.015.373-.535.037-.4.158-.978-.057a9.524,9.524,0,0,1-1.38-.287c-.105-.053-.2-.115-.315-.172a4.174,4.174,0,0,0-1.845-.363,3.632,3.632,0,0,1,.845.134l.343.412c-.225.153-.395-.01-.6-.057-.319.105,0,.134-.035.229l-.207.087.1.277.32.067.283.124.489.057a1.053,1.053,0,0,1-1.165,0l-.471-.162-.6-.1.45-.23-.7-.086-.453-.153c-.588-.161-.537.1-.863.287l-.226-.115-.318.124c-.327.027-.5-.214-.774-.354l-.506.162-.171-.144-.243.105c-.124.063-.21.078-.246.06s-.014-.08.094-.155l.074-.153-.224.057-.431.316-.506.239-.714.019a4.7,4.7,0,0,0-1.58-.076l-.43.335-.206.277-.262.172c-.325.095-.377.1-.409.078-.1-.051-.005-.269-.006-.327l.093-.2.3-.191.075-.192c-.022-.17-.177-.2-.359-.277l-.208-.2-.3-.115-.189-.1-.415-.1h-.225L29,36.28l-.133-.143-.66-.335-.282-.009-.244.028c-.36.032-.367-.27-1.07.22l-.469.067-.413.153-.338.23v.229c.114.153-.168.144-.3.229l.265.268-.15.058.169.067.226.038.17.105.245.048.076.076.377.076.188-.076.225-.019.205-.1.6.172.265.153-.094.124-.356.009-.3.21-.4-.009c-.736.216-.872.032.4.813l.02.086-.3.21-.244.125-.562.21.077.287.153.268.32.067.188.039.133.124.057.124.114.191a.228.228,0,0,1,.228-.011l.805.04a.9.9,0,0,1,.484.083,3.211,3.211,0,0,1,.345.242,1.737,1.737,0,0,0,.415.134,1.286,1.286,0,0,1,.4.1.569.569,0,0,1,.126.087l.171.258a4.27,4.27,0,0,1,1.113.679l.153.421c.041.581-.37.3.212.717.164.1.694.8.57.976l-.169.125v.134l-.337.191c-.395.087-.64-.038-.977.153.4.242.911-.193,1.111.182l-.337.153c.644.1.8-.085.887.641a.265.265,0,0,0,.163.256c.159.081.413.1.667.221s.283.186.284.316c-.055.22-.036.21.191.382Zm-7.589,1.014a3.348,3.348,0,0,0,1.653-.325c.45-.229.654-.488.6-.8-.058-.3-.3-.555-.757-.784a2.575,2.575,0,0,0-.848-.258l1.18-.6,2.018,1.023.731-.373-2.754-1.4-2.286,1.167-.035.363a3.523,3.523,0,0,1,1.092.325,1.1,1.1,0,0,1,.548.488c.039.172-.054.335-.316.468a1.662,1.662,0,0,1-.883.163,2.2,2.2,0,0,1-.81-.22,1.763,1.763,0,0,1-.529-.382.973.973,0,0,1-.171-.3L24.5,46.6l-1.014.076c-.035.421.25.794.891,1.119a3.845,3.845,0,0,0,1.712.393" transform="translate(-11.869 -20.709)" fill="#f4ca89"/>
          </g>
          <g id="Group_41088" data-name="Group 41088" transform="translate(53.958 15)">
            <path id="Path_31947" data-name="Path 31947" d="M19.582,21.618l.108.046,8.123,4.12c-.329.1-1.658,1.18-3.155.421l-2.283-1.158L18.02,22.838l-.162-.082-.253-.128Z" transform="translate(-17.605 -21.618)" fill="#fee182"/>
          </g>
          <g id="Group_41091" data-name="Group 41091" transform="translate(14.357 29.86)">
            <path id="Path_31950" data-name="Path 31950" d="M12.078,28.565,9.792,29.732a3.837,3.837,0,0,1-1.839.44,3.794,3.794,0,0,1-1.732-.383c-.509-.258-.755-.555-.758-.88s.278-.641.858-.937l2.286-1.167.7.354L7.057,28.307q-.561.286-.617.6c-.017.2.116.382.436.545a2.3,2.3,0,0,0,1.091.23,3.04,3.04,0,0,0,1.164-.325l2.249-1.148Z" transform="translate(-5.463 -26.805)" fill="#fff"/>
          </g>
          <g id="Group_41092" data-name="Group 41092" transform="translate(20.665 32.834)">
            <path id="Path_31951" data-name="Path 31951" d="M10.368,28.762c.057.124-.054.258-.316.392a1.65,1.65,0,0,1-.789.192,2.459,2.459,0,0,1-1-.316L7.4,28.59l1.462-.746.887.45C10.123,28.484,10.33,28.647,10.368,28.762Z" transform="translate(-7.397 -27.843)" fill="#635238"/>
          </g>
          <g id="Group_41093" data-name="Group 41093" transform="translate(105.828 32.824)">
            <path id="Path_31952" data-name="Path 31952" d="M38.258,28.28c.584.3.87.65.816,1.061l-.827.019-.153-.44a1.576,1.576,0,0,0-.453-.325,2.925,2.925,0,0,0-1.318-.306,2.894,2.894,0,0,0-1.314.287c-.374.191-.58.411-.559.669q-.025.388.512.66a2.468,2.468,0,0,0,.677.23l.846.067-.016.411a4.211,4.211,0,0,1-2.089-.392c-.566-.287-.869-.612-.872-.994,0-.364.259-.689.822-.976a4.117,4.117,0,0,1,1.933-.411,4.4,4.4,0,0,1,2,.44Z" transform="translate(-33.508 -27.84)" fill="#fff"/>
          </g>
          <g id="Group_41094" data-name="Group 41094" transform="translate(112.829 36.383)">
            <path id="Path_31953" data-name="Path 31953" d="M42,30.421l-.581.3-2-1.014-.993.507,1.792.908-.544.278-1.792-.908-.993.507,2.056,1.043-.6.306-2.7-1.368,3.709-1.893Z" transform="translate(-35.655 -29.082)" fill="#fff"/>
          </g>
          <g id="Group_41095" data-name="Group 41095" transform="translate(53.622 39.364)">
            <path id="Path_31954" data-name="Path 31954" d="M18.984,30.135a2.449,2.449,0,0,1,1.15.159,2.666,2.666,0,0,0-1.279.138,1.014,1.014,0,0,0-.641.186,3.79,3.79,0,0,0-.712-.053A4.249,4.249,0,0,1,18.984,30.135Z" transform="translate(-17.502 -30.122)" fill="#cb4844"/>
          </g>
          <g id="Group_41096" data-name="Group 41096" transform="translate(26.11 36.288)">
            <path id="Path_31955" data-name="Path 31955" d="M16.9,30.961l-4.066,2.076-.754-.382.641-2.688L9.764,31.478l-.7-.354,4.066-2.076.7.354-.659,2.755,3.035-1.549Z" transform="translate(-9.067 -29.048)" fill="#fff"/>
          </g>
          <g id="Group_41099" data-name="Group 41099" transform="translate(120.505 40.276)">
            <path id="Path_31958" data-name="Path 31958" d="M42.359,30.766,38.65,32.659l-.641-.325,3.709-1.893Z" transform="translate(-38.008 -30.441)" fill="#fff"/>
          </g>
          <g id="Group_41100" data-name="Group 41100" transform="translate(54.921 40.391)">
            <path id="Path_31959" data-name="Path 31959" d="M25.6,32.193l-.731.373L18.787,33.6l-.886-.45,6.027-1.061-1.7-.861-.656.335-.735-.373,1.386-.708Z" transform="translate(-17.9 -30.481)" fill="#fff"/>
          </g>
          <g id="Group_41101" data-name="Group 41101" transform="translate(59.284 42.855)">
            <path id="Path_31960" data-name="Path 31960" d="M23.891,33.449c.172.373,0,.708-.52.976a3.034,3.034,0,0,1-1.52.277,4.224,4.224,0,0,1-1.732-.44c-.547-.277-.812-.564-.871-.88-.058-.3.128-.564.539-.774a3.243,3.243,0,0,1,1.916-.268c-.077-.325.072-.574.447-.766a2.542,2.542,0,0,1,1.371-.22,3.764,3.764,0,0,1,1.524.393c.453.229.718.5.776.774.076.268-.091.507-.447.689a2.957,2.957,0,0,1-1.484.24Zm-2.2.7A1.547,1.547,0,0,0,22.58,34c.243-.124.355-.277.279-.45a.919.919,0,0,0-.473-.45,2.641,2.641,0,0,0-.9-.249A1.664,1.664,0,0,0,20.6,33c-.244.125-.337.288-.261.46a1,1,0,0,0,.492.44,2.686,2.686,0,0,0,.866.249m1.9-2.277a1.486,1.486,0,0,0-.77.124c-.206.105-.28.239-.242.393a.665.665,0,0,0,.4.411,2.112,2.112,0,0,0,.809.2,1.491,1.491,0,0,0,.77-.125c.206-.105.281-.239.242-.392-.02-.162-.171-.3-.4-.411a1.821,1.821,0,0,0-.81-.2" transform="translate(-19.238 -31.341)" fill="#fff"/>
          </g>
          <g id="Group_41104" data-name="Group 41104" transform="translate(127.687 43.91)">
            <path id="Path_31963" data-name="Path 31963" d="M44.96,32.149c.585.3.851.641.816,1.061l-.827.019-.153-.44a1.63,1.63,0,0,0-.472-.335,2.906,2.906,0,0,0-1.3-.3,2.723,2.723,0,0,0-1.314.287c-.374.191-.58.411-.559.669q-.025.387.512.66a2.573,2.573,0,0,0,.677.23l.846.067-.016.411a4.212,4.212,0,0,1-2.089-.392c-.566-.287-.869-.612-.871-.995,0-.364.259-.689.821-.976a4.12,4.12,0,0,1,1.933-.411,4.324,4.324,0,0,1,2,.44Z" transform="translate(-40.21 -31.709)" fill="#fff"/>
          </g>
          <g id="Group_41106" data-name="Group 41106" transform="translate(130.293 46.072)">
            <path id="Path_31965" data-name="Path 31965" d="M47.039,32.808,44.97,35.534l-.679-.344.465-.621-1.867-.947-1.22.239-.66-.335,5.351-1.061Zm-3.3.651,1.358.689.858-1.129Z" transform="translate(-41.009 -32.464)" fill="#fff"/>
          </g>
          <g id="Group_41107" data-name="Group 41107" transform="translate(72.984 48.698)">
            <path id="Path_31966" data-name="Path 31966" d="M23.438,34.325a3.486,3.486,0,0,0,.85-.424,1.584,1.584,0,0,0,.523-.521.482.482,0,0,1,.247.377c.02.182-.129.335-.373.459a1.572,1.572,0,0,1-.844.162A2.541,2.541,0,0,1,23.438,34.325Z" transform="translate(-23.438 -33.38)" fill="#635238"/>
          </g>
          <g id="Group_41108" data-name="Group 41108" transform="translate(68.988 47.868)">
            <path id="Path_31967" data-name="Path 31967" d="M28.7,34.8a3.245,3.245,0,0,1-1.084.8,7.448,7.448,0,0,1-1.369.545,4.94,4.94,0,0,1-1.22.182,3.979,3.979,0,0,1-1.882-.382,2.052,2.052,0,0,1-.727-.572,1.259,1.259,0,0,1-.2-.394l1.015-.1.083.164.087.17.359.3a2.52,2.52,0,0,0,1.374.258,3.89,3.89,0,0,0,1.464-.44,4.064,4.064,0,0,1-.846-.067,2.909,2.909,0,0,1-.886-.277,1.848,1.848,0,0,1-.361-.233.658.658,0,0,1-.283-.533c0-.287.222-.555.691-.794a3.213,3.213,0,0,1,1.6-.335c1.2,0,2.916.736,2.191,1.7Zm-2.085.124a1.572,1.572,0,0,0,.844-.162c.244-.124.393-.277.373-.459a.482.482,0,0,0-.247-.377,1.148,1.148,0,0,0-.151-.091,1.972,1.972,0,0,0-.9-.21,1.644,1.644,0,0,0-.864.172q-.365.186-.392.43c0,.172.134.315.417.459a2.194,2.194,0,0,0,.521.185,2.538,2.538,0,0,0,.4.054" transform="translate(-22.213 -33.091)" fill="#fff"/>
          </g>
          <g id="Group_41111" data-name="Group 41111" transform="translate(134.763 47.507)">
            <path id="Path_31970" data-name="Path 31970" d="M45.916,35.279l-.387,1.177-.792-.4.369-1.09-.83-.421-1.256.641-.641-.325,3.709-1.893,1.4.708c.566.287.887.545.946.765s-.148.44-.56.65A2.65,2.65,0,0,1,45.916,35.279Zm-.3-.631a2.3,2.3,0,0,0,.9.287,1.4,1.4,0,0,0,.714-.173c.243-.124.355-.239.316-.354a1.456,1.456,0,0,0-.585-.43l-.792-.4-1.33.679Z" transform="translate(-42.38 -32.965)" fill="#fff"/>
          </g>
          <g id="Group_41112" data-name="Group 41112" transform="translate(74.836 51.237)">
            <path id="Path_31971" data-name="Path 31971" d="M27.55,34.515a4.489,4.489,0,0,1-1.725.708c-.528.128-1.1.245-1.655.355a.391.391,0,0,1-.114-.508,2.259,2.259,0,0,1,.973-.8,3.772,3.772,0,0,0,.846.163c.628-.017,1.027-.25,1.549.015.041.021.083.044.125.07Z" transform="translate(-24.006 -34.267)" fill="#635238"/>
          </g>
          <g id="Group_41113" data-name="Group 41113" transform="translate(73.364 51.832)">
            <path id="Path_31972" data-name="Path 31972" d="M23.986,34.645a.666.666,0,0,0,.25.727.761.761,0,0,1-.476-.059l-.033-.018c-.3-.172-.154-.517.034-.67a1.038,1.038,0,0,1,.3-.151.966.966,0,0,0-.078.171Z" transform="translate(-23.555 -34.474)" fill="#635238"/>
          </g>
          <g id="Group_41114" data-name="Group 41114" transform="translate(73.764 50.149)">
            <path id="Path_31973" data-name="Path 31973" d="M30.249,35.4c-.129.392-.578.775-1.327,1.157a6.128,6.128,0,0,1-2.271.68,4.015,4.015,0,0,1-2.145-.4,2.372,2.372,0,0,1-.547-.362.666.666,0,0,1-.25-.727.966.966,0,0,1,.078-.171,2.835,2.835,0,0,1,1.232-1,6.191,6.191,0,0,1,2.289-.669,3.907,3.907,0,0,1,2.146.4C30.094,34.63,30.358,34.994,30.249,35.4Zm-3.7,1.272a5.069,5.069,0,0,0,1.576-.517,2.25,2.25,0,0,0,1.009-.8c.149-.249.016-.488-.38-.689a2.285,2.285,0,0,0-1.374-.2,5.038,5.038,0,0,0-1.594.507l-.018.01a2.259,2.259,0,0,0-.973.8.391.391,0,0,0,.114.508,1.28,1.28,0,0,0,.285.19,2.226,2.226,0,0,0,1.355.192" transform="translate(-23.677 -33.887)" fill="#fff"/>
          </g>
          <g id="Group_41115" data-name="Group 41115" transform="translate(78.176 51.917)">
            <path id="Path_31974" data-name="Path 31974" d="M30.581,35.393,25.8,37.832l-.773-.392,4.047-2.066-.981-.5.731-.373Z" transform="translate(-25.03 -34.504)" fill="#fff"/>
          </g>
          <g id="Group_41116" data-name="Group 41116" transform="translate(63.051 34.604)">
            <path id="Path_31975" data-name="Path 31975" d="M88.481,50.039c.209.335-.2.258-.638.134l-.356.163-.189-.249-.264-.172-.078-.21-.264-.153-.264-.172.036-.229c-.245-.124-.638.115-.807.182-.271-.135-.427-.328-.323-.488-.224.1-.3.191-.3.325l.075.172-.148.1c-.075.115.02.22-.338.172-1.081-.6-.507-.22-1.9-.526a1.616,1.616,0,0,0-.771.01.553.553,0,0,1-.27-.014c-.1-.051.012-.188-.108-.33-.583-.029-1.018-.383-1.581-.421a.787.787,0,0,0-.6.192l-.524.248c-.4-.181-.6.154-.883.2l-.808.009c-.339-.038-.433-.22-.735-.239-.4-.009-.732.182-1.128.191a3.285,3.285,0,0,0,.9-.4c.348-.275-.036-.792,1.405-.737a6.218,6.218,0,0,1,1.034.048l.641.191.564-.038a3.965,3.965,0,0,0,1.014-.038c.17-.079.189-.129.131-.158a12.9,12.9,0,0,1-1.35-.069l.219-.242a3.06,3.06,0,0,1-1.055-.421c-.508-.124-.958.278-1.428.172-.317-.141.05-.265-.115-.383L76.6,46.7c-.4-.2-.437-.631-.888-.737-.282-.067-.658-.028-.94-.115-.264-.076-.4-.2-.66-.258a3.941,3.941,0,0,0-1.334.105l-.639-.039c-.189-.019-.415-.134-.6-.019-.168.124.19.248.19.364.019.117-.2.149-.017.241.206.086.512.039.709.139l.009.433-.507.066c-1.135.032.021.022-2.385.488-1.053.178-1.042.387-2.105-.077a4.5,4.5,0,0,0-1.392-.172l-.865.1-.395-.067c-.582.105-.26.536-.541.7a.748.748,0,0,1-.619.031c-.388-.2.139-.341.467-.452.506-.182-.151-.191-.059-.43.119-.281.69-.174.054-.354l-.415-.172.243-.258c-.265-.076-.47.048-.752.019-.246-.028-.661-.315-.829-.134l.153.268.265.191c.372.394-1.247-.45-.825.364.273.507-1.228.926-2.006.986-2.086.143-2.2-.087-4.309-.641a1.818,1.818,0,0,0-1.129-.172c-.507.182-.222.516-.258.765-.073.289-1.07.946-1.649.653l-.9-.1.318-.316-.321-.22c-.1-.143.068-.556-.152-.668-.333-.169-1.024.333-1.258.658-.223.306.435.392.343.631-.074.172-.525.211-.561.421-.061.266-.228.325-.365.256a.41.41,0,0,1-.2-.37,2.566,2.566,0,0,1,.222-.708c.324-1.083,1.953-1.077,1.869-1.741a.839.839,0,0,1-.655.069c-.287-.279.2-.222.409-.289.319-.105.167-.334.241-.507s.429-.526.184-.689l-1.054-.268-.32-.029-.528-.076a2.015,2.015,0,0,0-.865,0,2.306,2.306,0,0,1-1.052,0l-.265-.211c-.507.144-.881.545-1.444.622a3.742,3.742,0,0,0-.77.086l-.525.134c-.321-.114.023-.319.054-.431l-.059-.335.3-.229c1.1-1.205,1.076-.847,2-1.426-.388-.337-.576.108-.9-.058.124-.287.477-.869.349-1.157-.15-.38-2.073-.794-2.151-1.2-.064-.286.247-.315-.3-.44-.3-.07-.521-.112-.566-.382-.061-.287.354-.641-.268-.784-.588.285-1.1.934-.549,1.215a4.919,4.919,0,0,0,1.269.161c.068.035.017.113-.071.289-.13.22.265.325.229.517-.048.312-1.225.276-1.916.268l-.582.028-.452-.172c-.394-.1-.645.163-1.012-.023l-.457-.3-.582.029-.4-.2-.64-.038c-.265-.287.222-.555.371-.861l.241-.411.054-.373.374-.4.128-.392.242-.392.036-.21-.151-.134c-.109-.2.073-.426.194-.635a2.223,2.223,0,0,1-.758.5c-.037.268-.373.536-.428.814-.116.8-.814.386-.6.937l0,.325-.3.23-.129.258c-.054.162.171.3.134.45-.055.163-.393.143-.505.3,1.415.717,2.223.545,2.318.832a9.4,9.4,0,0,1-3.286.584c-2.646.039-2.775-.488-3.888.184a3.508,3.508,0,0,0-1.64-.394,3.213,3.213,0,0,0-1.6.335c-.469.239-.692.507-.691.794a.658.658,0,0,0,.283.533c-.675-.1-.713-.064-1.012.147-.059.044-.118.094-.179.145l-.084-.164-1.015.1a1.259,1.259,0,0,0,.2.394,1.3,1.3,0,0,1-.179-.04c-1.722-.525-2.063,1.28-5.512-.469-.979-.5-.077-.7.164-.986l.167-.315c.316-.507,1.291-.908,1.476-1.425a.873.873,0,0,1,.56-.631,1.7,1.7,0,0,1,1.089-.153c.152-.053-.21.135,1.461-.861.449-.287.352-.756.482-1.11.178-.462,1.83-.47,1.127-.826a2.77,2.77,0,0,1-.437-.236c-.317-.235.058-.638-.308-.823a12.038,12.038,0,0,0-1.222-.219l-.34-.229c-3.414-.773-1.522-1.3-1.876-2.4.053-.315.5-.507.9-.708.225-.115-.058-.278-.021-.392,2.717-1.426,1.392.23,3.1-.507.507-.01,1.031-.335,1.6-.22,1.749.319.968-.131,2.067-.153l.791.038c.957-.2-.381-.766-.007-.918l.339.019a8.134,8.134,0,0,1,1.143-.6c1.128.626,1.406,1.08,1.81.938l.28-.3c.243-.182.413-.211.373-.459-.02-.182-.152-.382.259-.516.465.236.087.4,1.018.363.451,0,.754.344,1.393.23a4.16,4.16,0,0,1,1.3.144l.583-.009.509.1c.545.01.731-.373,1.219-.45.469-.086.884.163,1.165-.153-.466-.248-.689-.228-1.02-.4-.934-.473,1.078-.768,1.406-.876,1.25.647,1.237.2,1.807.268l.471.067c.617-.089.032-.34,1.333-.3a9.48,9.48,0,0,1,3.219.66c.365.038.323-.067.65.1a1.1,1.1,0,0,1,.216.15,1.727,1.727,0,0,0,.2.121.95.95,0,0,0,.182.07c.219.077.544.087.678.249l.021.354c.04.268.548.373.719.612.6.647-.067,1.023-.84.813-.391-.1-.509-.32-.859-.5l-.326.374c0,.775,1.938.311,2.441.567.326.165.291.409,1.155.438,1.205.042.611-.019,1.564.545a2.64,2.64,0,0,0,1.469.268c.432-.009.356-.086.62.048.189.1.252.187.39.257a.982.982,0,0,0,.289.087l.525-.172c1.27.644.368.92,1.154,1.138.853-.327-.507-.41,2.421-.622.523-.018.561.17.228.382a4.849,4.849,0,0,1-1.012.344c-.394.144-.355.373-.6.555A1.924,1.924,0,0,1,59.7,35.5a1.194,1.194,0,0,0,.432.361,1.576,1.576,0,0,0,.455.146c.584.086,1.654-.038,1.745-.373.307-1.124.987-.725,1.5-1.033.326.161-.458.574-.258.784.244-.048.449-.325.75-.268.029.227.322.158.539.268.219.151-.069.283.206.422.669-.113-.7-1.3,1.966.056.181.092.263.236.444.327.61-.117-.031-.385.4-.548.433.163.96.182,1.411.335a1.9,1.9,0,0,1,.4.2,2.573,2.573,0,0,0,.566.229c.357.086.526,0,.828.153a2.918,2.918,0,0,0,.265.156,1.76,1.76,0,0,0,.244.1c.509.182,1.109.067,1.58.288.742.372-.2.452.964.889l.679.286c.169.144-.131.259-.017.373-.861.549-4.281-.82-4.025-.306A7.757,7.757,0,0,1,73.222,39c.079.151-.205.209-.023.3a8.16,8.16,0,0,1,1.325.435c-.187.153-.6.057-.3.268.188.115.434.22.6.344l.471.239c.3.038.131-.086.319-.105a1.312,1.312,0,0,1,.848.373c.416.287.586.526.081.765-.2.1-.486.212-.25.332.347.156.514-.083.778-.007l.17.2.886.449.811.258.375-.057a6.868,6.868,0,0,1,2.113,1.243l-.187.134.246.143-.094.144c.08.223.691.278,1.11.49a5.59,5.59,0,0,1,.778.542l-.226.115c-.452.076-.135.3.227.48.223.113.463.212.549.256a4.8,4.8,0,0,0,.641.325c.261.1.652.13.4.3-.445-.064-.245.2.058.239.379.059.239-.481,1.157-.015a4.784,4.784,0,0,1,.839.57,4.575,4.575,0,0,1,.873,1.282c.045.1.01.415.139.48Z" transform="translate(-20.393 -28.461)" fill="#f4ca89"/>
          </g>
          <g id="Group_41117" data-name="Group 41117" transform="translate(80.005 53.705)">
            <path id="Path_31976" data-name="Path 31976" d="M32.1,35.53a1.116,1.116,0,0,1,.681.727c.039.287-.147.536-.6.765a2.684,2.684,0,0,1-.882.258,13.9,13.9,0,0,1-1.56.086l-2.274.009,2.169,1.1-.769.392L25.591,37.2l.693-.354,2.914.01c.658-.01,1.128-.019,1.447-.048a1.9,1.9,0,0,0,.769-.182.459.459,0,0,0,.3-.364c-.02-.144-.152-.268-.379-.382a2.754,2.754,0,0,0-1.581-.191l-.266-.517a5.8,5.8,0,0,1,1.41-.009,3.318,3.318,0,0,1,1.206.363Z" transform="translate(-25.591 -35.128)" fill="#fff"/>
          </g>
          <g id="Group_41118" data-name="Group 41118" transform="translate(86.245 56.412)">
            <path id="Path_31977" data-name="Path 31977" d="M34.907,37.5l-.637.325-2.443.076c.434.22.623.469.606.727s-.185.478-.56.67a3.229,3.229,0,0,1-1.652.325,4.192,4.192,0,0,1-1.675-.431A2.036,2.036,0,0,1,27.5,38.149l1-.144a1.577,1.577,0,0,0,.813.832,2.46,2.46,0,0,0,.9.249,1.584,1.584,0,0,0,.826-.153c.244-.124.337-.268.28-.45a1.257,1.257,0,0,0-.625-.526l-.6-.23.618-.316,2.386-.086-1.735-.88.731-.373Z" transform="translate(-27.504 -36.073)" fill="#fff"/>
          </g>
          <g id="Group_41119" data-name="Group 41119" transform="translate(97.601 61.465)">
            <path id="Path_31978" data-name="Path 31978" d="M32.028,38.526c-.061-.037-.125-.073-.195-.109a2.747,2.747,0,0,0-.847-.258l.632-.323a1.286,1.286,0,0,0,.421.323c.049.022.1.044.14.066.222.113.333.224-.044.288Z" transform="translate(-30.986 -37.836)" fill="#cb4844"/>
          </g>
          <g id="Group_41120" data-name="Group 41120" transform="translate(90.955 59.176)">
            <path id="Path_31979" data-name="Path 31979" d="M35.167,37.487l-4.583.574,1.15.584.882-.45.773.392-.175.089-.706.36.566.287-.73.373-.566-.287-1.2.612L29.8,39.63l1.2-.613-.561-.284-1.494-.758.712-.363,4.621-.574Z" transform="translate(-28.948 -37.038)" fill="#fff"/>
          </g>
          <g id="Group_41121" data-name="Group 41121" transform="translate(94.366 60.439)">
            <path id="Path_31980" data-name="Path 31980" d="M37.159,38.875l-.731.373L34.41,38.224l-.548.28-.632.323a2.767,2.767,0,0,1,.848.258c.07.035.133.072.194.109a1.123,1.123,0,0,1,.582.685.566.566,0,0,1-.072.36,1.192,1.192,0,0,1-.524.444,3.347,3.347,0,0,1-1.653.325,3.848,3.848,0,0,1-1.712-.393c-.66-.335-.945-.708-.891-1.119l1.014-.076.02.143a.984.984,0,0,0,.171.3,1.646,1.646,0,0,0,.511.373,2.195,2.195,0,0,0,.809.22,1.662,1.662,0,0,0,.883-.163c.262-.134.374-.287.316-.468a1.059,1.059,0,0,0-.548-.488,3.632,3.632,0,0,0-1.092-.325l.035-.363.447-.228,1.839-.939Z" transform="translate(-29.994 -37.478)" fill="#fff"/>
          </g>
          <g id="Group_41122" data-name="Group 41122" transform="translate(99.894 64.818)">
            <path id="Path_31981" data-name="Path 31981" d="M31.885,39.46a.449.449,0,0,1-.194-.337.312.312,0,0,1,.009-.116,1.175,1.175,0,0,1,.18.384.328.328,0,0,1,0,.069Z" transform="translate(-31.689 -39.007)" fill="#cb4844"/>
          </g>
          <g id="Group_41124" data-name="Group 41124" transform="translate(98.839 62.916)">
            <path id="Path_31983" data-name="Path 31983" d="M36.032,40.438c0,.287-.222.555-.69.794a3.346,3.346,0,0,1-1.614.344,3.714,3.714,0,0,1-1.488-.32c-.038-.017-.075-.034-.112-.053-.773-.392-.946-.841-.573-1.339a3.176,3.176,0,0,1,1.085-.8c.067-.034.133-.067.2-.1a7.243,7.243,0,0,1,1.169-.447,5.822,5.822,0,0,1,1.2-.172,3.987,3.987,0,0,1,1.883.382,1.7,1.7,0,0,1,.946.957l-1.015.1-.171-.335-.36-.3a2.516,2.516,0,0,0-1.374-.258,3.888,3.888,0,0,0-1.463.44,4.712,4.712,0,0,1,.846.067,2.936,2.936,0,0,1,.886.277C35.822,39.893,36.03,40.151,36.032,40.438Zm-2.309.622a1.707,1.707,0,0,0,.864-.172c.244-.125.374-.268.392-.45.018-.163-.134-.315-.417-.459a2.274,2.274,0,0,0-.922-.239,1.787,1.787,0,0,0-.864.172.605.605,0,0,0-.344.333.312.312,0,0,0-.009.116.449.449,0,0,0,.194.337,1.232,1.232,0,0,0,.222.142,2.093,2.093,0,0,0,.885.22" transform="translate(-31.366 -38.343)" fill="#fff"/>
          </g>
          <g id="Group_41125" data-name="Group 41125" transform="translate(88.179 60.343)">
            <path id="Path_31984" data-name="Path 31984" d="M39.632,42.931a5.01,5.01,0,0,1-.861.464,3.63,3.63,0,0,1-1.408.277,3.58,3.58,0,0,0-.958.163,1.779,1.779,0,0,1-1.09.076l-.415-.172-.508-.009.112-.191-.413.134a.771.771,0,0,1-.461-.059.946.946,0,0,1-.273-.238c-.209-.22-.3-.325-.136-.545.113-.192.562-.325.392-.545l-.133-.124.337-.249a2.126,2.126,0,0,1-.7-.037.176.176,0,0,1-.091-.1c-.058-.2.261-.306.053-.526l-.584-.239a2.2,2.2,0,0,1-.242-.107c-.151-.076-.286-.161-.436-.238a2.926,2.926,0,0,0-.923-.316,4.155,4.155,0,0,1-1.131-.226.838.838,0,0,1-.074-.042L29.16,39.8l-.677-.038a1.069,1.069,0,0,1-.224-.078c-.262-.133-.187-.323.089-.448.3.134.6-.172.788-.268a1.063,1.063,0,0,0,.466-.526,1.116,1.116,0,0,1,.636-.555l.676-.249-.546-.028.619-.163.6.306a2.116,2.116,0,0,0,.777.222l.561.285-1.2.612.773.392,1.2-.612.566.287.73-.372-.566-.287.706-.361.609.246a1.285,1.285,0,0,0,.377.335.736.736,0,0,0,.528.048,1.33,1.33,0,0,0,.2-.066l-.447.228-.035.363a3.631,3.631,0,0,1,1.093.325,1.057,1.057,0,0,1,.548.488c.058.181-.054.335-.316.468a1.664,1.664,0,0,1-.883.163,2.195,2.195,0,0,1-.81-.22,1.65,1.65,0,0,1-.511-.373.984.984,0,0,1-.171-.3l-.02-.143-1.014.076c-.053.411.231.784.891,1.119a3.849,3.849,0,0,0,1.713.393,3.347,3.347,0,0,0,1.653-.325,1.194,1.194,0,0,0,.524-.444c.686.085,1.209-.6,1.78-.771.237.119-.206.53-.3.67a2.418,2.418,0,0,1-.323.437c-.066.032-.133.064-.2.1a3.176,3.176,0,0,0-1.085.8c-.372.5-.2.946.573,1.339.037.019.074.036.112.053Z" transform="translate(-28.097 -37.445)" fill="#f4ca89"/>
          </g>
          <g id="Group_41126" data-name="Group 41126">
            <path id="Path_31985" data-name="Path 31985" d="M156.256,65.41c1.528.775,1.555,2.028.037,2.8L103.247,95.292a6.818,6.818,0,0,1-5.508-.01L2.212,46.835c-1.528-.775-1.536-2.018-.018-2.793L55.24,16.964a6.772,6.772,0,0,1,5.489,0ZM52.3,56.564a3.422,3.422,0,0,1,.3.171c-.391.488-.219.937.554,1.329a3.815,3.815,0,0,0,1.619.383,3.511,3.511,0,0,0,1.614-.344c.469-.239.692-.507.69-.794-.021-.3-.229-.555-.663-.775a2.913,2.913,0,0,0-.867-.268c-.022-.128.152-.2.487-.21a2.666,2.666,0,0,1,1.279-.138c.076.03.151.062.224.1l.341.287.19.345,1-.105a1.528,1.528,0,0,0-.814-.886c.1-.129.062-.283-.133-.415-.227-.172-.246-.162-.191-.382,0-.129-.029-.19-.185-.27-.353-.164-.608-.187-.766-.268-.323-.164-.023-.474-.279-.716-.221-.207-.4-.126-.771-.182l.337-.153c-.167-.314-.855-.032-1.036-.124.262-.248.507-.124.9-.211l.337-.191v-.134l.169-.125c.148-.21-.134-.373-.248-.564a.84.84,0,0,0-.322-.411c-.553-.4-.184-.315-.212-.717l-.153-.421a4.184,4.184,0,0,0-1.113-.679l-.171-.258a.568.568,0,0,0-.126-.087,1.286,1.286,0,0,0-.4-.1,1.984,1.984,0,0,1-.371-.109c-.163-.106-.257-.2-.388-.268a.9.9,0,0,0-.484-.083l-.507.105c-.36-.176-.428-.185-.527-.134l-.058-.162-.114-.153-.133-.124-.188-.039-.32-.067-.153-.268-.077-.287.562-.21.244-.125.3-.21-.1-.182c-1.188-.586-.984-.533-.325-.717l.4.009.3-.21L52.305,46l.094-.124-.265-.153-.6-.172-.205.1-.225.019-.188.076-.377-.076-.321-.124-.17-.105-.226-.038-.169-.067.15-.058-.265-.268c.131-.086.413-.076.3-.229v-.229l.338-.23.413-.153.469-.067c.692-.482.743-.191,1.07-.22l.244-.028.282.009.66.335.133.143.245.163h.225l.415.1.189.1.3.115.095.143c.327.154.448.147.473.335l-.075.192-.3.191-.093.2c0,.058-.1.276.006.327l.672-.251.206-.277.43-.335a4.7,4.7,0,0,1,1.58.076l.714-.019.506-.239.431-.316.224-.057-.074.153c-.108.075-.133.135-.094.155s.122,0,.246-.06l.243-.105.171.144.506-.162c.276.14.447.381.774.354l.318-.124.226.115.3-.249c.332-.246.676.019,1.016.115l.7.086-.45.23.6.1.471.162a1.053,1.053,0,0,0,1.165,0l-.489-.057-.283-.124-.32-.067-.1-.277.207-.087c.036-.1-.283-.124.035-.229.208.047.378.21.6.057l-.266-.363a2.881,2.881,0,0,0-.922-.182,4.178,4.178,0,0,1,1.795.337c.927.475,3.5.938,2.738.17l-.114-.249.149-.172-.077-.287.129-.258.2-.7L69.243,43l.093-.22c-.3-.1-.694.258-1.071.2l-.83-.421.58-.334L67.9,42l-.076-.287-.021-.277-.4-.22-.377-.191-.359-.258-.9.44c-.356.144-.733.182-.824.459-.074.191-.035.382-.354.526-.261.111-.345.035-.6-.1l-.489.019c-.375.134-.486.5-.9.574l-.434-.162c-.233-.287.326-.509.653-.756.41-.236.065-.33-.493-.707-.28-.3.085-.553-.491-.845-.355-.138-.564-.1-.457-.246.247-.221.538-.223.053-.469-.592-.3,1.083-.234,1.427-.248l.583-.163c.488-.038.64.172,1.036.22.263.038.563-.115.845-.029l-.338.172c.087.139.369.015.546.1l.152.191.357.106c.352.1.32.219.6.363.055-.182-.266-.383-.211-.564l.357-.221.339.115.357.009c.34-.074.582-1,1.595-.488.245.124.189.172.228.344.021.2.208.259.435.411l.152.21.058.354-.3.306-.677-.038-.319.22-.923-.45-.508.029c-.059.051-.037.088.023.118.11.056.345.087.43.13,1.2.46.6.584.852.871l.151.134v.249a1.041,1.041,0,0,0,.443.4c.518-.089-.181-.634.063-.643l.494.631.337-.115.506-.3c.036-.229-.211-.488.146-.67.449.221.191.543.455.766l.395-.125c.285.145.314.3.659.316.262-.134.113-.134-.039-.268l-.078-.325c.094-.144.244-.143.112-.287l-.49-.192c-.453-.248.337-.268.5-.43l-.133-.3,0-.306c.015-.1-.073-.153-.175-.2-.511-.256-.21-.2-.4-.982l-.377-.23-.021-.277-.453-.249-.206.144-.114-.191-.452-.249-.583-.086-.449.345-.432.009.13-.278a2.047,2.047,0,0,1,.937-.344c-.21-.47-1.761-.49-1.822.2-.017.258.21.507.061.756a1.281,1.281,0,0,1-1.323.339c-.264-.134.163-.386.194-.531.03-.245-.268-.2-.435-.392-.246-.3.5-.488.709-.708.584-.657.653-.252,1.37-.316l.262-.153c.214-.037-.017-.1,1.961.9,1.224.521,1.151.27,1.674.085a7.5,7.5,0,0,1,1.239-.152,9.852,9.852,0,0,1,1.2-.211c.994-.034,7.158,1.392,4.457.239-.461-.185-5.356-2.854-10.211-3.5-.191-.025-.377-.05-.554-.081l.4-.205.43-.22,3-1.531.431-.22.825-.421c.636-.325.652-.851-.008-1.186L66.28,26.644l-.434-.22-7.053-3.577a2.867,2.867,0,0,0-2.33,0l-8.939,4.563c-1.5.768.526,1.332.853,1.614a.932.932,0,0,1-.6-.246c-.431.182.172.411.174.641-.038.261-.319.641-.431.354l.074-.153-.264-.134-.753-.21c-.639-.077-.562.306-.3.478a3.593,3.593,0,0,0,1.188.468l-.336.287c-.632.133-1.2-.708-2.031-.057-.3.23.173.488.23.688,0,.1-.113.077.039.191l.395.144c.239.12.164.32-.034.44-.281.2-.676.134-1.071.182-.369.041-.573.165-.907.225a6.209,6.209,0,0,1,.628.091l.62-.067a5.572,5.572,0,0,1,1.2-.038,10.432,10.432,0,0,1,2.277.258c1.025.336,2.3.878,2.38,1.741-.018.22.528.287.454.5-.074.172-.524.383-.693.546l.49.134-.262.134.433.2-.356.22a10.025,10.025,0,0,0-.068,1.09c0,.211.623.488.23.67l-.4-.182c-.567.11.081.17-1.667,1.062-1.269.648-.572,1.086-1.154,1.683-.234.23-.416.362-.027.56.869-.133-.518.348-.3,1.372.714-.057.579-.564,1.028-.755.193.484-.362.994-.556,1.282-.205.163-.112.076.021.239.147.24-.513.409-.134.6.326.143.535.116.4.26l-.393.162-.129.258.132.124.039.268.078.268c.071.05.52.364.6.4.206.1.444.155.58.224.573.29.428.788.636,1.075l.039.287.077.249-.036.249.153.325.058.316.247.239c.24.37.392.113.753.153l.15.134c.021.181-.373.344-.6.459l-.431.277-.244-.029-.357.048-.375.153-.415-.249c-.189-.1-.546.087-.638.192l-.093.22-.376.1-.525.268.19.287c-1,1.231-.367.788-1.007,1.224-.244.163,0,.383.041.574l.115.364c.6.7-.946.919-3.41,1.817-.921.313-.361.42-1.595.469l-.6.172c-.375.153-.468.373-.881.526a7.659,7.659,0,0,0-1.274.44l-.469.278a.948.948,0,0,1-.329.06l.1-.137-.735-.373-5.877,1.158.735.373,1.333-.258L35.633,58.1l-.5.679.736.373.447-.594a1.316,1.316,0,0,0,.347.244,2.6,2.6,0,0,0,.605.211l-.834.425.7.354,3.186-1.626L38.9,60.332l.4.2,4.264-.718-3.186,1.626.7.354,4.066-2.076-1.075-.545-3.793.67,1.3-1.932L40.5,57.366l-2.544,1.3c-.454-.289-.7-.571-.067-.964.525-.325,1.561.048,1.9-.3.093-.1-.208-.239,0-.344a.221.221,0,0,1,.244.01,3.084,3.084,0,0,0,1.521-.373l.507-.163c.494-.035.317.306.828.23l.432-.2a2.008,2.008,0,0,0,2.744-.076c.206.085.2.145.189.211.111.373.769.166,1.336.124a19.931,19.931,0,0,0,2.179-.191,5.089,5.089,0,0,1,1.633-.354,2.655,2.655,0,0,1,.907.288M131.563,72.7c.433.124.847.2.638-.134l-.4-.526c-.276-.054-.24-.371-.285-.469a3.514,3.514,0,0,0-1.712-1.852c-.975-.494-.725.083-1.157.015-.3-.042-.5-.3-.058-.239.256-.167-.135-.2-.4-.3a4.808,4.808,0,0,1-.641-.325c-.086-.044-.326-.142-.549-.256-.362-.184-.68-.4-.227-.48l.226-.115c-1.471-1.069-1.751-.654-1.887-1.033l.094-.144-.246-.143.187-.134a5.751,5.751,0,0,0-2.113-1.243l-.375.057-.81-.258-.887-.449-.17-.2c-.264-.076-.432.163-.751.019-.263-.132.024-.242.223-.344.506-.239.336-.478-.081-.765a3.143,3.143,0,0,0-.415-.276.771.771,0,0,0-.433-.1c-.188.019-.018.143-.319.105-1.794-.947-1.106-.582-.777-.851a3.731,3.731,0,0,0-1.148-.373c-.523-.142-.026-.121-.153-.363a8.448,8.448,0,0,0-2.447-.651c-.25-.5,3.161.857,4.025.306-.114-.115.186-.229.017-.373l-.679-.286c-1.126-.424-.33-.57-.913-.865a15.534,15.534,0,0,0-1.632-.312,1.762,1.762,0,0,1-.244-.1,2.92,2.92,0,0,1-.265-.156c-.3-.153-.471-.067-.828-.153a2.836,2.836,0,0,1-.75-.337,15.577,15.577,0,0,0-1.624-.428c-.432.163.209.431-.316.584-.266-.128-.348-.271-.529-.363-2.666-1.352-1.324-.18-1.88-.019-.507-.247.187-.316-.511-.526-.159-.02-.3-.061-.321-.2-.3-.057-.507.22-.75.268-.2-.211.584-.623.3-.767-.616.265-1.248-.057-1.54,1.016-.091.334-1.162.458-1.745.373a1.576,1.576,0,0,1-.455-.146,1.193,1.193,0,0,1-.432-.361c1.906.536,1.793-.5,2.384-.718.326-.13,1.629-.441,1.158-.68a12.552,12.552,0,0,0-1.481.02c-1.075-.108-.669.309-1.313.555-.793-.221.151-.476-1.154-1.138l-.525.172a.982.982,0,0,1-.289-.087c-.138-.07-.2-.162-.39-.257-.264-.134-.188-.057-.62-.048a2.679,2.679,0,0,1-2.108-.713c-.622-.211-1.016.027-1.659-.243-.248-.126-.28-.28-.584-.354-.329-.087-2.277.175-2.278-.507l.242-.411c.469.226.544.429.944.535a1.258,1.258,0,0,0,1.032-.162c.407-.558-.864-.949-.911-1.263l-.021-.354c-.143-.172-.613-.194-.86-.319-.619-.314-.015-.26-1.062-.37l-.415-.134c-1.261-.479-.89-.113-1.7-.44a6.022,6.022,0,0,0-1.786-.087c-.244.067-.394.259-.656.3l-.471-.067c-.564-.064-.578.358-1.722-.222-.61.126-1.475.107-1.661.47-.235.391.637.47,1.108.709-.2.363-.614.114-1.083.2-.488.076-.674.459-1.219.45l-.509-.1-.583.009a4.16,4.16,0,0,0-1.3-.144c-.639.115-.942-.229-1.393-.23-.282.01-.149.153-.507.01-.314-.149-.209-.22-.51-.373-.642.208.117.415-.632.975l-.28.3c-.4.142-.671-.306-1.81-.938a8.2,8.2,0,0,0-1.143.6l-.339-.019c-.374.152.964.717.007.918l-.791-.038c-1.2.024-.31.473-2.067.153-.565-.115-1.089.21-1.6.22-.243.105-.318.258-.638.23l-.66-.3c-.564-.167-1.077.194-1.8.574-.037.115.246.278.021.392-.394.2-.844.393-.9.708.365,1.086-1.543,1.626,1.876,2.4l.34.229c.3.1.9.077,1.2.211.384.194.008.6.325.832.326.251.943.343.3.593-.47.182-.864.134-.993.469-.13.354-.032.823-.482,1.11-.225.134-.525.229-.713.364a2.857,2.857,0,0,1-.748.5,1.7,1.7,0,0,0-1.089.153.873.873,0,0,0-.56.631c-.185.517-1.159.918-1.476,1.425l-.167.315c-.113.134-.375.23-.506.374-.388.431,1.674,1.859,4.613,1.2l.543-.22c.358-.087.415.019.7.1a1.31,1.31,0,0,0,.179.04,2.052,2.052,0,0,0,.727.572,3.979,3.979,0,0,0,1.882.382,4.94,4.94,0,0,0,1.22-.182,7.448,7.448,0,0,0,1.369-.545,3.245,3.245,0,0,0,1.084-.8q.553-.739-.551-1.309c1.122-.678,1.33-.146,3.888-.184a9.4,9.4,0,0,0,3.286-.584c-.1-.3-.989-.158-2.318-.832.112-.153.45-.134.505-.3.037-.153-.189-.287-.134-.45l.129-.258.3-.23,0-.325c-.2-.516.486-.181.6-.937.054-.278.391-.545.428-.814a2.222,2.222,0,0,0,.758-.5c-.121.209-.3.438-.194.635l.151.134-.036.21-.242.392L82.969,61l-.374.4-.054.373-.241.411c-.149.306-.635.574-.371.861l.64.038.4.2.582-.029.341.229c.484.259.735,0,1.129.1l.452.172,1.09-.038c2.457-.052.969-.419,1.179-.775.325-.65-.376-.032-1.2-.449-.555-.281-.039-.93.549-1.215.951.22-.447.871.834,1.167.813.185-.421.187,1.1.956.4.2,1.244.4,1.358.689s-.225.87-.349,1.157c.326.166.517-.277.9.058-.951.594-.9.214-2,1.426l-.3.229.059.335c-.031.112-.375.317-.215.4l.686-.1a3.744,3.744,0,0,1,.77-.086c.563-.076.937-.478,1.444-.622l.265.211a2.306,2.306,0,0,0,1.052,0,2.014,2.014,0,0,1,.865,0l.528.076.32.029,1.054.268c.245.163-.109.517-.184.689s.078.4-.241.507c-.206.067-.7.01-.487.23a.785.785,0,0,0,.733-.01c.079.626-1.566.728-1.869,1.741a2.566,2.566,0,0,0-.222.708.41.41,0,0,0,.2.37c.137.069.3.01.365-.256.036-.21.487-.248.561-.421.092-.239-.566-.325-.343-.631s.927-.826,1.258-.658c.22.112.048.525.152.668l.321.22-.318.316.563-.076c.422.215.512.251.66.258a1.793,1.793,0,0,0,1.33-.737c.036-.249-.249-.583.258-.765a1.818,1.818,0,0,1,1.129.172c.756.2,1.692.5,2.335.612,1.634.262,4.362-.247,3.98-.957-.407-.785,1.193.026.825-.364l-.265-.191-.153-.268c.168-.182.583.105.829.134.281.029.487-.1.752-.019l-.243.258.415.172c.635.181.064.073-.054.354-.092.239.566.249.059.43-.328.111-.855.256-.467.452a.748.748,0,0,0,.619-.031c.281-.163-.041-.593.541-.7l.395.067.865-.1c1.292-.093,1.638.432,2.315.45a16.056,16.056,0,0,0,2.684-.545,1.8,1.8,0,0,1,.884-.144l.507-.066.053-.392c-.26-.141-.565-.094-.733-.163-.219-.109,0-.141-.021-.258,0-.115-.358-.24-.19-.364.188-.115.414,0,.6.019l.639.039a3.941,3.941,0,0,1,1.334-.105c.264.057.4.182.66.258.681.208.9-.168,1.45.507.408.533.448.256,1.056.5.165.118-.2.242-.006.342.591.146,1.041-.256,1.549-.131.683.313.394.276,1.055.421l-.3.191a5.9,5.9,0,0,0,1.43.12c.057.029.039.079-.131.158a3.966,3.966,0,0,1-1.014.038l-.564.038-.641-.191c-.328-.062-1.77-.148-2.086.143-.412.326.2.469-1.254.947.4-.009.732-.2,1.128-.191.3.019.4.2.735.239l.808-.009c.281-.048.486-.382.883-.2l.524-.248a.787.787,0,0,1,.6-.192c.564.039,1,.393,1.581.421.227.267-.145.394.379.344a9.473,9.473,0,0,1,2.2.214l.472.3c.357.048.262-.057.338-.172l.148-.1-.075-.172c0-.134.073-.229.3-.325-.1.16.052.352.271.464.22-.042.613-.282.859-.158l-.036.229.264.172.264.153.078.21.264.172.189.249ZM78.68,45.974c.343-.03-.337-.065,3.633.851l.395-.125.562-.287c.326-.166.183-.628.881-.392a1.189,1.189,0,0,0,1-.067c.356-.144,1.164-.1,1.2-.421.017-.143-.266-.287-.172-.45.167-.287.687-.24,1.013-.268l.431-.162.622.144c.32.048.677.019,1.016.1.226.038,1.035.278,1.148.105-2.025-1.324-4.411-1.2-3.489-1.6l.244-.086a18.707,18.707,0,0,1-1.848-.937c.5-.134,1.951.837,3.089,1.014-.043-.229-.542-.287-.642-.44l-.02-.182-.133-.22c-1.857-.942-3.7-2.179-5.448-2.4-.319.125.226.268-.111.383a2.358,2.358,0,0,1-.962-.488c-.245-.086-.432.143-.752,0l-.043-.019c-.295-.15-.081-.429-.262-.612a7.064,7.064,0,0,0-1.7-.8c-.338.115-.15.211.039.325.169.106.3.325-.167.316a1.7,1.7,0,0,1-.849-.354A3.523,3.523,0,0,0,77,38.669a.7.7,0,0,0-.7,0c-.075.153.646.366.811.45a1.216,1.216,0,0,1-.92.086l-.245-.124-.339.02c-.327-.209-.578-.374-.663-.417a.807.807,0,0,0-.355-.081l-.244.009-.32-.029c-.451.115.266.535.436.622-.282.067-.9-.325-1.034-.086l.358.335.208.162.02.2a.633.633,0,0,0,.123.079,13.125,13.125,0,0,0,1.4.543.729.729,0,0,1,.549.468c.134.373-.108.784-.52,1.091-.261.21-1.235.67-.8.966-.318.239-.938.287-1.256.545l-.28.277a4.3,4.3,0,0,0-.824.555c-.041,1.155-.14,1.133.122,1.266.022.011.047.023.075.035l.32.124.056.163.283.162c.762.386.959-.186,1.314-.306l.545.009c.3-.038.468-.258.788-.211l.4.162c.967.095.637.018,1.016.211l.715.134Zm23.583,36.557a3.346,3.346,0,0,0,1.614-.344c.468-.239.691-.507.69-.794s-.21-.545-.644-.765a2.936,2.936,0,0,0-.886-.277,4.708,4.708,0,0,0-.846-.067,3.887,3.887,0,0,1,1.463-.44,2.516,2.516,0,0,1,1.374.258l.36.3.171.335,1.015-.1a1.7,1.7,0,0,0-.946-.957,3.987,3.987,0,0,0-1.883-.382,5.822,5.822,0,0,0-1.2.172,7.242,7.242,0,0,0-1.169.447,2.419,2.419,0,0,0,.323-.437c.091-.14.535-.55.317-.661-.591.162-1.114.847-1.8.762a.567.567,0,0,0,.072-.359,1.124,1.124,0,0,0-.582-.685l.107-.013c.377-.064.267-.175.044-.288-.044-.022-.091-.044-.14-.066a1.286,1.286,0,0,1-.421-.323l.548-.28,2.018,1.023.731-.373-2.753-1.4L98,77.76a1.332,1.332,0,0,1-.2.066.736.736,0,0,1-.528-.048,1.285,1.285,0,0,1-.377-.335l-.609-.246.175-.089-.773-.392-.882.45-1.151-.584,4.584-.574-.886-.449-4.621.574-.711.363,1.494.758a2.116,2.116,0,0,1-.777-.222l-.6-.306-.619.163.546.028-.676.249a1.116,1.116,0,0,0-.636.555,1.063,1.063,0,0,1-.466.526c-.187.1-.486.4-.788.268-.277.125-.351.315-.089.448a1.069,1.069,0,0,0,.224.078l.677.038.528.287a.839.839,0,0,0,.074.042,4.155,4.155,0,0,0,1.131.226,2.926,2.926,0,0,1,.923.316c.151.076.285.161.436.238a2.2,2.2,0,0,0,.242.107l.584.239c.209.22-.11.325-.053.526a.176.176,0,0,0,.091.1,2.126,2.126,0,0,0,.7.037l-.337.249.133.124c.171.22-.279.354-.392.545-.168.22-.073.325.136.545a.946.946,0,0,0,.273.238.771.771,0,0,0,.461.059l.413-.134-.112.191.508.009.415.172a1.78,1.78,0,0,0,1.09-.076,3.581,3.581,0,0,1,.958-.163,3.631,3.631,0,0,0,1.408-.277,5.011,5.011,0,0,0,.861-.464,3.714,3.714,0,0,0,1.488.32M77.8,69.878a6.127,6.127,0,0,0,2.271-.68c.749-.382,1.2-.765,1.327-1.157.109-.4-.155-.765-.8-1.091a3.907,3.907,0,0,0-2.146-.4,6.191,6.191,0,0,0-2.289.669,2.835,2.835,0,0,0-1.232,1,1.037,1.037,0,0,0-.3.151c-.187.153-.335.5-.034.67l.033.018a.761.761,0,0,0,.476.059,2.372,2.372,0,0,0,.547.362,4.015,4.015,0,0,0,2.145.4m-50.281-25.5q-.193.588.8,1.09a3.9,3.9,0,0,0,2.145.4,6.2,6.2,0,0,0,2.29-.67,2.429,2.429,0,0,0,1.308-1.167q.192-.588-.8-1.091a3.912,3.912,0,0,0-2.146-.4,6.192,6.192,0,0,0-2.288.67,2.433,2.433,0,0,0-1.309,1.167M62.958,62.6a3.034,3.034,0,0,0,1.52-.277c.524-.268.692-.6.52-.976a2.957,2.957,0,0,0,1.484-.239c.356-.181.523-.421.447-.689-.059-.277-.324-.545-.776-.774a3.764,3.764,0,0,0-1.524-.393,2.542,2.542,0,0,0-1.371.22c-.375.192-.524.44-.447.766A3.243,3.243,0,0,0,60.9,60.5c-.412.21-.6.478-.539.774.058.316.324.6.871.88a4.223,4.223,0,0,0,1.732.44M37.8,49.437l-2.188-1.11,2.274-.009a11.723,11.723,0,0,0,1.56-.086,2.8,2.8,0,0,0,.9-.249c.449-.229.636-.478.6-.765a1.142,1.142,0,0,0-.681-.727,3.422,3.422,0,0,0-1.225-.373,5.8,5.8,0,0,0-1.409.009l.266.517a2.814,2.814,0,0,1,1.581.191c.226.115.359.239.378.382,0,.153-.073.268-.28.373a2.173,2.173,0,0,1-.769.182c-.338.019-.808.029-1.466.038H34.439l-.693.354,3.282,1.664ZM84.348,73.828l.768-.392-2.169-1.1,2.274-.009a13.9,13.9,0,0,0,1.56-.086,2.684,2.684,0,0,0,.882-.258c.449-.229.636-.478.6-.765a1.114,1.114,0,0,0-.681-.727,3.321,3.321,0,0,0-1.206-.363,5.8,5.8,0,0,0-1.409.009l.266.517a2.758,2.758,0,0,1,1.58.191c.226.115.359.239.379.382a.459.459,0,0,1-.3.364,1.9,1.9,0,0,1-.77.182c-.319.029-.789.038-1.447.048l-2.914-.01-.693.354Zm-21.4-14.969.731-.373-3.376-1.712-1.386.708.735.373.656-.335,1.7.861-6.027,1.061.886.45Zm27.07,17.485a3.226,3.226,0,0,0,1.652-.325c.375-.192.543-.412.56-.67s-.172-.507-.605-.727l2.443-.076.637-.325L91.9,72.795l-.731.373,1.735.88-2.386.086-.618.315.6.23a1.261,1.261,0,0,1,.625.526c.056.182-.036.325-.28.45a1.587,1.587,0,0,1-.826.153,2.46,2.46,0,0,1-.9-.249,1.574,1.574,0,0,1-.813-.832l-1,.144a2.038,2.038,0,0,0,1.041,1.042,4.191,4.191,0,0,0,1.675.431M40.816,51.389a3.157,3.157,0,0,0,1.633-.335c.375-.191.562-.4.579-.66s-.19-.517-.624-.737l2.461-.066.637-.325-2.81-1.425-.731.373,1.735.88-2.386.086-.618.315.583.22a1.332,1.332,0,0,1,.644.535c.038.172-.036.325-.28.45a1.526,1.526,0,0,1-.845.143,2.273,2.273,0,0,1-.886-.239,1.632,1.632,0,0,1-.832-.842l-.977.153a2.018,2.018,0,0,0,1.023,1.033,4.3,4.3,0,0,0,1.694.44m-9.873,5.27,4.066-2.076-.7-.354-3.036,1.55.659-2.755-.7-.354-4.066,2.076.7.354,2.961-1.512-.641,2.688Zm105.762,5.8-5.351,1.061.66.335,1.22-.239,1.867.947-.465.621.679.344,2.069-2.726ZM19.747,49.17,22.034,48l-.7-.354L19.087,48.8a3.043,3.043,0,0,1-1.164.325,2.3,2.3,0,0,1-1.092-.23c-.32-.162-.453-.345-.436-.545q.056-.317.617-.6L19.261,46.6l-.7-.354-2.286,1.167c-.581.3-.86.612-.859.937s.249.622.758.88a3.793,3.793,0,0,0,1.732.383,3.842,3.842,0,0,0,1.84-.44m1.9,2.774.868.44.405-1.3a2.857,2.857,0,0,0,2.161-.2c.449-.229.655-.468.6-.708-.039-.248-.4-.526-1.021-.841l-1.527-.775-4.067,2.076.679.344,1.368-.7.924.469Zm-8.074-4.381a2.494,2.494,0,0,0,1.258-.239c.356-.182.524-.364.485-.574a1.187,1.187,0,0,0-.512-.7,1.845,1.845,0,0,1-.548-.565l.186-.287L15,45.1a2.021,2.021,0,0,1,.621.182,1.768,1.768,0,0,1,.51.373.846.846,0,0,1,.228.382l.883-.067a.989.989,0,0,0-.3-.536,2.69,2.69,0,0,0-.642-.459,3.4,3.4,0,0,0-1.338-.354,2.319,2.319,0,0,0-1.277.229c-.374.191-.543.393-.485.612l.171.335a3.2,3.2,0,0,0,.492.44c.227.191.379.344.4.45l-.185.287-.564.1a1.932,1.932,0,0,1-.7-.2,1.243,1.243,0,0,1-.74-.928l-.959.048a1.65,1.65,0,0,0,1.042,1.2,3.458,3.458,0,0,0,1.413.373M131.5,60.293a4.12,4.12,0,0,0-1.933.411c-.562.287-.823.612-.821.976,0,.382.306.708.871.995a4.213,4.213,0,0,0,2.089.392l.016-.411-.846-.067a2.582,2.582,0,0,1-.678-.23q-.538-.273-.512-.66c-.021-.258.186-.478.559-.669a2.724,2.724,0,0,1,1.314-.287,2.91,2.91,0,0,1,1.3.3,1.627,1.627,0,0,1,.473.335l.153.44.827-.019c.035-.421-.231-.765-.816-1.061a4.331,4.331,0,0,0-2-.44M109.643,49.207a4.124,4.124,0,0,0-1.933.411c-.562.287-.823.612-.821.976,0,.382.306.708.872.995a4.209,4.209,0,0,0,2.089.392l.016-.411-.846-.067a2.464,2.464,0,0,1-.678-.23q-.538-.273-.512-.66c-.021-.258.185-.478.559-.669a2.89,2.89,0,0,1,1.314-.287,2.924,2.924,0,0,1,1.318.306,1.571,1.571,0,0,1,.453.325l.154.44.827-.019c.054-.411-.231-.765-.816-1.061a4.4,4.4,0,0,0-2-.44M143.063,68.94a3.951,3.951,0,0,0,1.9-.431c.581-.3.861-.612.8-.966-.021-.354-.38-.688-1.04-1.023l-1.282-.65-3.709,1.893,1.226.622a4.707,4.707,0,0,0,2.109.555m-21.955-14.4L117.4,56.438l1.226.622a4.641,4.641,0,0,0,2.108.555,3.95,3.95,0,0,0,1.9-.431c.581-.3.861-.612.821-.956-.021-.354-.4-.7-1.059-1.033ZM26.284,54.3l.637-.325-2.263-1.148,1.087-.555,1.962.995.618-.315-1.962-.995L27.45,51.4l2.188,1.11.637-.325L27.39,50.719l-4.066,2.076Zm18.86,9.565.637-.325L43.537,62.4l1.087-.555,1.962,1,.618-.315-1.962-1,1.087-.555,2.188,1.11.638-.325-2.886-1.463L42.2,62.369Zm94.389.028-3.709,1.893.641.325,1.256-.641.83.421-.369,1.09.792.4.387-1.177a2.65,2.65,0,0,0,1.954-.191c.412-.21.617-.43.56-.65s-.38-.478-.946-.765ZM113.714,50.795,110,52.689l.641.325,1.255-.641.811.411-.35,1.1.792.4.387-1.176a2.649,2.649,0,0,0,1.954-.191c.412-.21.617-.43.56-.65s-.38-.478-.946-.765ZM126.6,57.328l-.562.287,1.132.574L124.018,59.8l.641.325,3.147-1.607,1.131.574.562-.287Zm-9-4.562-3.709,1.893,2.7,1.368.6-.305-2.056-1.043.993-.507,1.792.909.544-.278-1.792-.909.993-.507,2,1.014.581-.3ZM80.01,71.627l4.778-2.439L83.034,68.3l-.731.373.98.5-4.047,2.066ZM32.671,47.62l4.778-2.439-1.735-.88-.731.373.962.488L31.9,47.227Zm52.549.927c-.246-.1-.546.01-.791-.114l-.415-.211-.244-.067-.246-.22a.833.833,0,0,0-.172-.109c-.174-.088-.426-.169-.581-.063l-.112.057.623.277c-.075.192-.377-.076-.526,0l.019.163-.262.134.17.2.34.153a.949.949,0,0,0,.169.107c.249.127.564.182.867.305a.841.841,0,0,0,.49.1l.489.058.206-.22.129-.22c.132-.118.089-.207-.079-.291l-.074-.034m40.056,8.111-3.709,1.893.641.325,3.709-1.893Z" transform="translate(-1.061 -16.383)" fill="#635238"/>
          </g>
          <g id="Group_41127" data-name="Group 41127" transform="translate(54.146 6.884)">
            <path id="Path_31986" data-name="Path 31986" d="M17.662,19.006l.431-.22L26.2,22.9a6.429,6.429,0,0,0-1.639-.393Z" transform="translate(-17.662 -18.786)" fill="#485f69"/>
          </g>
          <g id="Group_41128" data-name="Group 41128" transform="translate(62.809 10.041)">
            <path id="Path_31987" data-name="Path 31987" d="M22.729,20.107l-1.977,1.009c-.069-.041-.14-.081-.216-.12s-.143-.068-.217-.1l1.976-1.009Z" transform="translate(-20.319 -19.887)" fill="#485f69"/>
          </g>
          <g id="Group_41129" data-name="Group 41129" transform="translate(47.718 8.855)">
            <path id="Path_31988" data-name="Path 31988" d="M23.921,22.126c-1.224.7-1.678,1.6-1.328,2.378l-6.9-3.5,3-1.531Z" transform="translate(-15.692 -19.473)" fill="#fee182"/>
          </g>
          <g id="Group_41130" data-name="Group 41130" transform="translate(63.242 10.261)">
            <path id="Path_31989" data-name="Path 31989" d="M29.482,23.542c.66.335.644.861.008,1.186l-.825.421-8.124-4.12-.09-.054,1.977-1.009Z" transform="translate(-20.451 -19.964)" fill="#fee182"/>
          </g>
          <g id="Group_41131" data-name="Group 41131" transform="translate(53.642 15.849)">
            <path id="Path_31990" data-name="Path 31990" d="M17.654,22.007a.927.927,0,0,1-.145-.092l.305.155a.927.927,0,0,1-.16-.062Z" transform="translate(-17.508 -21.915)" fill="#ee5550"/>
          </g>
          <g id="Group_41132" data-name="Group 41132" transform="translate(54.211 16.138)">
            <path id="Path_31991" data-name="Path 31991" d="M17.744,22.072a.148.148,0,0,1-.062-.057l.162.082A.287.287,0,0,1,17.744,22.072Z" transform="translate(-17.682 -22.015)" fill="#ee5550"/>
          </g>
          <g id="Group_41133" data-name="Group 41133" transform="translate(26.425 26.141)">
            <path id="Path_31992" data-name="Path 31992" d="M15.735,27.016a2.429,2.429,0,0,1-1.308,1.167,6.2,6.2,0,0,1-2.29.67,3.9,3.9,0,0,1-2.145-.4q-.99-.5-.8-1.09A2.433,2.433,0,0,1,10.5,26.193a6.192,6.192,0,0,1,2.288-.67,3.912,3.912,0,0,1,2.146.4Q15.929,26.428,15.735,27.016ZM12.058,28.3a4.988,4.988,0,0,0,1.557-.526,2.326,2.326,0,0,0,1.028-.794c.13-.258,0-.5-.4-.7a2.336,2.336,0,0,0-1.374-.2,4.958,4.958,0,0,0-1.575.516,2.351,2.351,0,0,0-1.01.8c-.13.258,0,.5.4.7a2.333,2.333,0,0,0,1.373.2" transform="translate(-9.163 -25.507)" fill="#fff"/>
          </g>
          <g id="Group_41134" data-name="Group 41134" transform="translate(10.056 28.234)">
            <path id="Path_31993" data-name="Path 31993" d="M9.327,26.6a2.693,2.693,0,0,1,.642.459.988.988,0,0,1,.3.536l-.884.067a.841.841,0,0,0-.228-.382,1.778,1.778,0,0,0-.51-.373,2.013,2.013,0,0,0-.621-.182l-.564.1-.185.287a1.842,1.842,0,0,0,.548.564,1.187,1.187,0,0,1,.512.7c.039.21-.129.392-.484.574a2.5,2.5,0,0,1-1.258.239,3.459,3.459,0,0,1-1.412-.373,1.649,1.649,0,0,1-1.042-1.2l.958-.048a1.243,1.243,0,0,0,.74.928,1.93,1.93,0,0,0,.7.2l.564-.1.186-.286c-.019-.106-.171-.258-.4-.45a3.235,3.235,0,0,1-.492-.44l-.171-.335c-.058-.22.11-.421.484-.612a2.317,2.317,0,0,1,1.277-.23,3.4,3.4,0,0,1,1.338.354Z" transform="translate(-4.145 -26.237)" fill="#fff"/>
          </g>
          <g id="Group_41135" data-name="Group 41135" transform="translate(111.402 35.025)">
            <path id="Path_31994" data-name="Path 31994" d="M36.894,29.966a2.3,2.3,0,0,1-.9-.287l-.773-.392,1.33-.679.792.4a1.292,1.292,0,0,1,.567.421c.039.115-.054.239-.3.363a1.4,1.4,0,0,1-.714.172Z" transform="translate(-35.217 -28.608)" fill="#ee5550"/>
          </g>
          <g id="Group_41136" data-name="Group 41136" transform="translate(35.27 40.27)">
            <path id="Path_31995" data-name="Path 31995" d="M12.146,30.512c.038-.025.079-.049.121-.073l-.391.522A.46.46,0,0,1,12.146,30.512Z" transform="translate(-11.875 -30.438)" fill="#cb4844"/>
          </g>
          <g id="Group_41137" data-name="Group 41137" transform="translate(30.448 39.405)">
            <path id="Path_31996" data-name="Path 31996" d="M15.2,32.91l-.447.594-.736-.373.5-.679-2.056-1.043-1.333.258-.735-.373,5.877-1.158.735.373-.1.137Zm-1.815-1.683,1.49.755.345-.46L15.611,31l.2-.262Z" transform="translate(-10.397 -30.137)" fill="#fff"/>
          </g>
          <g id="Group_41140" data-name="Group 41140" transform="translate(138.667 49.487)">
            <path id="Path_31999" data-name="Path 31999" d="M49.609,35.329c.059.354-.221.67-.8.966a3.951,3.951,0,0,1-1.9.431,4.707,4.707,0,0,1-2.109-.555l-1.226-.622,3.709-1.893,1.282.65c.66.335,1.02.669,1.04,1.023Zm-2.757.947a2.57,2.57,0,0,0,1.294-.3c.862-.44.784-.9-.2-1.4l-.623-.316L44.8,35.559l.7.354a3.073,3.073,0,0,0,1.357.363" transform="translate(-43.577 -33.656)" fill="#fff"/>
          </g>
        </g>
        <g id="Group_41224" data-name="Group 41224" transform="translate(27.5 22.193)">
          <g id="Group_41062" data-name="Group 41062" transform="translate(0 4.495)">
            <path id="Path_31921" data-name="Path 31921" d="M13.5,25.923c.4.2.529.44.4.7a2.326,2.326,0,0,1-1.028.794,4.987,4.987,0,0,1-1.557.526,2.334,2.334,0,0,1-1.373-.2c-.4-.2-.529-.44-.4-.7a2.351,2.351,0,0,1,1.01-.8,4.958,4.958,0,0,1,1.575-.516,2.336,2.336,0,0,1,1.374.2Z" transform="translate(-9.493 -25.698)" fill="#635238"/>
          </g>
          <g id="Group_41085" data-name="Group 41085" transform="translate(24.888 18.056)">
            <path id="Path_31944" data-name="Path 31944" d="M17.54,31.5a.651.651,0,0,1-.417-.478.4.4,0,0,1,.123-.285l.1-.021.545.029.469-.182.211-.132a2.211,2.211,0,0,1,.71.218c.264.134.416.286.417.459a.658.658,0,0,1-.392.45,1.861,1.861,0,0,1-.864.172,2.265,2.265,0,0,1-.9-.229Z" transform="translate(-17.123 -30.431)" fill="#635238"/>
          </g>
          <g id="Group_41089" data-name="Group 41089" transform="translate(43.797)">
            <path id="Path_31948" data-name="Path 31948" d="M38.17,28.1l.133.22.02.182c.1.153.6.21.642.44-1.009-.157-2.613-1.141-3.089-1.014a18.019,18.019,0,0,0,1.848.937l-.244.086c-.2.087-.223.188-.053.274,1.506.764-.188-.566,3.541,1.323-.113.172-.921-.067-1.147-.105-.339-.076-.7-.048-1.016-.1l-.621-.143-.431.162-.282.01c-1.241.111-.524.42-.559.708-.036.325-.844.277-1.2.421a1.19,1.19,0,0,1-1,.067c-.723-.244-.55.223-.881.392l-.562.287-.395.125a9.13,9.13,0,0,0-2.334-.5c-.49-.057-.755-.4-1.3-.354l-.638.115-.715-.134c-.379-.192-.047-.115-1.016-.21l-.4-.163c-.321-.048-.488.172-.789.211l-.545-.009c-.382.129-.537.7-1.314.306l-.283-.162-.056-.163c-.042-.017.151.057-.395-.159-.2-.1-.187-.177-.154-.367l0-.478.035-.421a4.3,4.3,0,0,1,.824-.555l.28-.277c.319-.258.938-.306,1.256-.545-.66-.451,1.7-.989,1.322-2.056a.73.73,0,0,0-.549-.469,13.106,13.106,0,0,1-1.4-.543.628.628,0,0,1-.123-.079l-.021-.2L24.351,25l-.359-.335c.13-.239.753.153,1.035.086-.17-.086-.887-.507-.436-.622l.32.029.244-.009a.807.807,0,0,1,.355.081c.085.043.336.208.663.417l.339-.019.245.124a1.214,1.214,0,0,0,.92-.086c-.165-.083-.886-.3-.811-.45.423-.216.695-.013,1.054.229a1.69,1.69,0,0,0,.849.354c.47.01.336-.21.167-.315-.189-.115-.378-.21-.039-.325,2.9,1.167,1.243,1.052,1.959,1.415l.043.019c.321.143.507-.086.752,0a2.335,2.335,0,0,0,.962.488c.337-.115-.209-.258.11-.382,1.737.22,3.584,1.456,5.448,2.4Z" transform="translate(-22.921 -24.129)" fill="#f4ca89"/>
          </g>
          <g id="Group_41090" data-name="Group 41090" transform="translate(53.951 9.137)">
            <path id="Path_31949" data-name="Path 31949" d="M28.816,28.186c.167.085.211.173.079.291l-.13.22-.206.22-.489-.058a.841.841,0,0,1-.49-.1c-.3-.123-.618-.178-.867-.305a.954.954,0,0,1-.169-.106L26.2,28.2l-.17-.2.262-.134-.019-.163c.149-.076.451.192.526,0l-.622-.277.112-.057c.155-.106.407-.025.581.063a.842.842,0,0,1,.172.109l.246.22.245.067.415.211c.245.124.545.009.791.114l.073.034Z" transform="translate(-26.034 -27.318)" fill="#635238"/>
          </g>
          <g id="Group_41097" data-name="Group 41097" transform="translate(90.058 16.58)">
            <path id="Path_31956" data-name="Path 31956" d="M39.159,31.925a3.013,3.013,0,0,1-1.356-.363l-.7-.354,2.53-1.292.641.325c.981.5,1.039.947.177,1.387a2.578,2.578,0,0,1-1.295.3Z" transform="translate(-37.105 -29.916)" fill="#635238"/>
          </g>
          <g id="Group_41098" data-name="Group 41098" transform="translate(5.936 17.815)">
            <path id="Path_31957" data-name="Path 31957" d="M13.417,30.682a.46.46,0,0,0-.27.449l-.345.46-1.49-.755,2.422-.488-.2.262c-.043.024-.084.048-.121.073Z" transform="translate(-11.313 -30.347)" fill="#635238"/>
          </g>
          <g id="Group_41102" data-name="Group 41102" transform="translate(35.124 21.187)">
            <path id="Path_31961" data-name="Path 31961" d="M20.271,32.046c-.038-.154.036-.287.242-.393a1.486,1.486,0,0,1,.77-.124,1.821,1.821,0,0,1,.81.2c.226.115.377.249.4.411.039.153-.036.287-.242.392a1.491,1.491,0,0,1-.77.125,2.112,2.112,0,0,1-.809-.2.665.665,0,0,1-.4-.411Z" transform="translate(-20.262 -31.524)" fill="#635238"/>
          </g>
          <g id="Group_41103" data-name="Group 41103" transform="translate(32.859 22.168)">
            <path id="Path_31962" data-name="Path 31962" d="M22.113,32.573c.076.172-.036.325-.279.45a1.547,1.547,0,0,1-.884.144,2.686,2.686,0,0,1-.866-.249,1,1,0,0,1-.492-.44c-.076-.172.017-.335.261-.46a1.664,1.664,0,0,1,.882-.143,2.641,2.641,0,0,1,.9.249A.919.919,0,0,1,22.113,32.573Z" transform="translate(-19.567 -31.867)" fill="#635238"/>
          </g>
          <g id="Group_41105" data-name="Group 41105" transform="translate(105.518 24.434)">
            <path id="Path_31964" data-name="Path 31964" d="M44.061,32.657,43.2,33.786,41.845,33.1Z" transform="translate(-41.845 -32.657)" fill="#635238"/>
          </g>
          <g id="Group_41109" data-name="Group 41109" transform="translate(44.547 26.2)">
            <path id="Path_31968" data-name="Path 31968" d="M25.462,33.579a1.584,1.584,0,0,1-.523.521,3.486,3.486,0,0,1-.85.424,2.194,2.194,0,0,1-.521-.185c-.283-.144-.416-.287-.417-.459q.027-.244.392-.43a1.644,1.644,0,0,1,.864-.172,1.972,1.972,0,0,1,.9.21,1.149,1.149,0,0,1,.151.091Z" transform="translate(-23.151 -33.274)" fill="#635238"/>
          </g>
          <g id="Group_41110" data-name="Group 41110" transform="translate(42.586 27.279)">
            <path id="Path_31969" data-name="Path 31969" d="M22.55,34c.061-.051.12-.1.179-.145.3-.21.337-.249.845-.163l.167.016a1.848,1.848,0,0,0,.361.233,2.909,2.909,0,0,0,.886.277,4.064,4.064,0,0,0,.846.067,3.889,3.889,0,0,1-1.464.44A2.52,2.52,0,0,1,23,34.469l-.359-.3Z" transform="translate(-22.55 -33.651)" fill="#635238"/>
          </g>
          <g id="Group_41123" data-name="Group 41123" transform="translate(72.406 42.118)">
            <path id="Path_31982" data-name="Path 31982" d="M33.823,39.07c.283.144.435.3.417.459-.018.182-.148.325-.392.45a1.707,1.707,0,0,1-.864.172,2.093,2.093,0,0,1-.885-.22,1.232,1.232,0,0,1-.222-.142.328.328,0,0,0,0-.069,1.175,1.175,0,0,0-.18-.384A.606.606,0,0,1,32.037,39a1.787,1.787,0,0,1,.864-.172,2.274,2.274,0,0,1,.922.239Z" transform="translate(-31.693 -38.83)" fill="#635238"/>
          </g>
          <g id="Group_41138" data-name="Group 41138" transform="translate(109.722 25.926)">
            <path id="Path_31997" data-name="Path 31997" d="M44.81,34.536a2.305,2.305,0,0,1-.9-.287l-.773-.392,1.33-.679.792.4a1.456,1.456,0,0,1,.585.43c.039.115-.073.229-.316.354A1.4,1.4,0,0,1,44.81,34.536Z" transform="translate(-43.134 -33.178)" fill="#635238"/>
          </g>
          <g id="Group_41139" data-name="Group 41139" transform="translate(112.388 27.906)">
            <path id="Path_31998" data-name="Path 31998" d="M47.1,34.185c.98.5,1.058.957.2,1.4a2.57,2.57,0,0,1-1.294.3,3.073,3.073,0,0,1-1.357-.363l-.7-.354,2.53-1.292Z" transform="translate(-43.951 -33.869)" fill="#635238"/>
          </g>
          <g id="Group_41141" data-name="Group 41141" transform="translate(47.501 28.501)">
            <path id="Path_32000" data-name="Path 32000" d="M27.9,34.3c.4.2.529.44.38.689a2.25,2.25,0,0,1-1.009.8,5.069,5.069,0,0,1-1.576.517,2.226,2.226,0,0,1-1.355-.192,1.281,1.281,0,0,1-.285-.19c.556-.11,1.126-.227,1.655-.355a4.489,4.489,0,0,0,1.725-.708c-.042-.027-.084-.05-.125-.07-.522-.265-.921-.033-1.549-.015a3.773,3.773,0,0,1-.846-.163l.018-.01a5.038,5.038,0,0,1,1.594-.507,2.285,2.285,0,0,1,1.374.2Z" transform="translate(-24.057 -34.077)" fill="#635238"/>
          </g>
        </g>
        <g id="Group_41143" data-name="Group 41143" transform="translate(108.943 34.412)">
          <path id="Path_32001" data-name="Path 32001" d="M38,30.709l-.387,1.176-.792-.4.35-1.1-.811-.411-1.255.641-.641-.325,3.709-1.894,1.4.708c.566.287.887.545.946.765s-.148.44-.56.65A2.649,2.649,0,0,1,38,30.709Zm-.3-.631a2.3,2.3,0,0,0,.9.287,1.4,1.4,0,0,0,.714-.172c.243-.124.336-.248.3-.363a1.292,1.292,0,0,0-.567-.421l-.792-.4-1.33.679Z" transform="translate(-34.464 -28.394)" fill="#fff"/>
        </g>
      </g>
    </g>
    <g id="Group_41209" data-name="Group 41209" transform="translate(75.821)">
      <g id="Group_41166" data-name="Group 41166" transform="translate(0.517 28.762)">
        <g id="Group_41150" data-name="Group 41150">
          <g id="Group_41149" data-name="Group 41149">
            <g id="Group_41146" data-name="Group 41146" transform="translate(0 17.479)">
              <path id="Path_32002" data-name="Path 32002" d="M93.332,20.708l-.03,9.44c-.014,4.467-3.348,8.928-10.008,12.335-13.406,6.858-35.227,6.858-48.721,0-6.79-3.451-10.182-7.983-10.167-12.509l.03-9.44c-.015,4.525,3.377,9.057,10.167,12.509,13.494,6.858,35.315,6.858,48.721,0C89.984,29.636,93.317,25.176,93.332,20.708Z" transform="translate(-24.405 -20.535)" fill="#f4ca89"/>
            </g>
            <g id="Group_41148" data-name="Group 41148" transform="translate(0.03)">
              <path id="Path_32003" data-name="Path 32003" d="M83.144,19.578c13.494,6.858,13.565,17.985.159,24.843s-35.227,6.859-48.721,0-13.565-17.986-.159-24.844S69.65,12.719,83.144,19.578Z" transform="translate(-24.415 -14.434)" fill="#fed44c"/>
              <g id="Group_41147" data-name="Group 41147" transform="translate(4.377 3.851)">
                <path id="Path_32004" data-name="Path 32004" d="M77.914,20.41c-5.876-2.972-13.746-4.632-22.209-4.632-8.441,0-16.29,1.641-22.121,4.632C28.541,23,25.757,26.2,25.757,29.443a5.315,5.315,0,0,0,.2,1.409c.7-2.721,3.355-5.365,7.63-7.547,5.832-2.991,13.681-4.632,22.121-4.632,8.463,0,16.333,1.66,22.209,4.632,4.319,2.2,7.081,4.941,7.783,7.7a5.618,5.618,0,0,0,.2-1.467C85.894,26.316,82.978,23,77.914,20.41Z" transform="translate(-25.757 -15.778)" fill="#f4ca89"/>
                <path id="Path_32005" data-name="Path 32005" d="M77.777,21.42c-5.876-2.972-13.746-4.632-22.209-4.632-8.441,0-16.29,1.641-22.121,4.632-4.275,2.182-6.928,4.825-7.63,7.547.7,2.76,3.464,5.52,7.783,7.72,5.876,2.991,13.746,4.632,22.209,4.632,8.441,0,16.29-1.641,22.121-4.632,4.275-2.2,6.928-4.845,7.629-7.566-.7-2.76-3.464-5.5-7.783-7.7Z" transform="translate(-25.62 -13.893)" fill="#f4ca89"/>
              </g>
            </g>
          </g>
        </g>
        <g id="Group_41165" data-name="Group 41165" transform="translate(14.702 8.364)">
          <g id="Group_41164" data-name="Group 41164">
            <g id="Group_41151" data-name="Group 41151" transform="translate(33.515 2.115)">
              <path id="Path_32006" data-name="Path 32006" d="M41.075,18.091l0,1.527-1.881.962.005-1.527Z" transform="translate(-39.189 -18.091)" fill="#f1bb34"/>
            </g>
            <g id="Group_41152" data-name="Group 41152" transform="translate(19.407 3.031)">
              <path id="Path_32007" data-name="Path 32007" d="M34.863,21.859l0-1.527c0-.482.4-.933,1.2-1.341a6.13,6.13,0,0,1,3.021-.576,10.064,10.064,0,0,1,3.6.829l0,1.527a10.063,10.063,0,0,0-3.6-.829,6.127,6.127,0,0,0-3.021.575c-.8.408-1.2.859-1.2,1.341Z" transform="translate(-34.863 -18.411)" fill="#f1bb34"/>
            </g>
            <g id="Group_41153" data-name="Group 41153" transform="translate(22.555 5.135)">
              <path id="Path_32008" data-name="Path 32008" d="M42.772,19.145l0,1.527-6.938,3.549,0-1.527Z" transform="translate(-35.828 -19.145)" fill="#f1bb34"/>
            </g>
            <g id="Group_41154" data-name="Group 41154" transform="translate(29.493 5.135)">
              <path id="Path_32009" data-name="Path 32009" d="M41.127,22.939l0,1.527a7.621,7.621,0,0,0-3.167-3.793l0-1.527a7.623,7.623,0,0,1,3.167,3.794Z" transform="translate(-37.956 -19.145)" fill="#f1bb34"/>
            </g>
            <g id="Group_41155" data-name="Group 41155" transform="translate(32.66 8.417)">
              <path id="Path_32010" data-name="Path 32010" d="M44.751,20.291l0,1.527-5.82.511,0-1.527Z" transform="translate(-38.927 -20.291)" fill="#f1bb34"/>
            </g>
            <g id="Group_41156" data-name="Group 41156" transform="translate(12.741 4.648)">
              <path id="Path_32011" data-name="Path 32011" d="M32.82,20.5l0-1.527a1.9,1.9,0,0,0,.03.34q.337,1.823,3.532,4.466l0,1.527q-3.2-2.645-3.532-4.465a1.88,1.88,0,0,1-.03-.34Z" transform="translate(-32.819 -18.975)" fill="#f1bb34"/>
            </g>
            <g id="Group_41157" data-name="Group 41157" transform="translate(18.055 10.987)">
              <path id="Path_32012" data-name="Path 32012" d="M36.078,23.535l0,1.527c0-.024,0-.049,0-.073-.04-.534-.586-1.3-1.622-2.274l0-1.527c1.036.976,1.582,1.74,1.622,2.274,0,.024,0,.049,0,.073Z" transform="translate(-34.449 -21.188)" fill="#f1bb34"/>
            </g>
            <g id="Group_41158" data-name="Group 41158" transform="translate(11.414 10.987)">
              <path id="Path_32013" data-name="Path 32013" d="M39.059,21.188l0,1.527-6.641,3.4.005-1.527Z" transform="translate(-32.413 -21.188)" fill="#f1bb34"/>
            </g>
            <g id="Group_41159" data-name="Group 41159" transform="translate(0 8.473)">
              <path id="Path_32014" data-name="Path 32014" d="M34.035,27.013l0,1.527q-4.583-2.852-5.117-6.7l0-1.527Q29.457,24.164,34.035,27.013Z" transform="translate(-28.913 -20.31)" fill="#f1bb34"/>
            </g>
            <g id="Group_41160" data-name="Group 41160" transform="translate(2.426 16.553)">
              <path id="Path_32015" data-name="Path 32015" d="M32.044,24.341l0,1.527-2.382-1.211,0-1.527Z" transform="translate(-29.657 -23.131)" fill="#f1bb34"/>
            </g>
            <g id="Group_41161" data-name="Group 41161" transform="translate(4.808 16.405)">
              <path id="Path_32016" data-name="Path 32016" d="M33.047,23.079l0,1.527-2.655,1.358,0-1.527Z" transform="translate(-30.387 -23.079)" fill="#f1bb34"/>
            </g>
            <g id="Group_41162" data-name="Group 41162" transform="translate(7.463 13.642)">
              <path id="Path_32017" data-name="Path 32017" d="M50.02,22.115l0,1.527q-.006,1.7-2.948,3.2A15.353,15.353,0,0,1,39.5,28.366,21.258,21.258,0,0,1,31.2,26.4l0-1.527a21.262,21.262,0,0,0,8.3,1.961,15.353,15.353,0,0,0,7.566-1.524q2.938-1.5,2.948-3.2Z" transform="translate(-31.201 -22.115)" fill="#f1bb34"/>
            </g>
            <g id="Group_41163" data-name="Group 41163" transform="translate(0.005)">
              <path id="Path_32018" data-name="Path 32018" d="M55.164,30.66c.207,1.261-.77,2.436-2.921,3.536a15.353,15.353,0,0,1-7.566,1.524,21.262,21.262,0,0,1-8.3-1.961l-2.655,1.358L31.34,33.906l2.691-1.377q-4.583-2.852-5.117-6.7l5.93-.262a7.055,7.055,0,0,0,3.209,4.908l7.163-3.665q-3.2-2.645-3.532-4.466c-.215-1.211.735-2.362,2.867-3.453a15.376,15.376,0,0,1,7.466-1.529A20.216,20.216,0,0,1,60.084,19.2l1.845-.944,2.382,1.211-1.881.962a10.815,10.815,0,0,1,4.964,5.34l-5.82.511a7.623,7.623,0,0,0-3.167-3.794l-6.938,3.55.109.055q3.281,2.672,3.587,4.567ZM44.18,32.639a6.206,6.206,0,0,0,3.183-.566c.855-.437,1.267-.926,1.228-1.459s-.586-1.3-1.622-2.274l-6.641,3.4a11.649,11.649,0,0,0,3.852.9m5.572-8.153,6.39-3.269a10.064,10.064,0,0,0-3.6-.829,6.13,6.13,0,0,0-3.021.576c-.819.419-1.222.884-1.2,1.381s.486,1.211,1.431,2.141" transform="translate(-28.914 -17.353)" fill="#fed44c"/>
            </g>
          </g>
        </g>
      </g>
      <g id="Group_41187" data-name="Group 41187" transform="translate(7.472 15.539)">
        <g id="Group_41171" data-name="Group 41171">
          <g id="Group_41170" data-name="Group 41170">
            <g id="Group_41167" data-name="Group 41167" transform="translate(0 17.479)">
              <path id="Path_32019" data-name="Path 32019" d="M95.464,16.093l-.03,9.44C95.42,30,92.086,34.46,85.426,37.867c-13.406,6.858-35.227,6.858-48.721,0-6.79-3.451-10.182-7.983-10.167-12.509l.03-9.44c-.015,4.525,3.377,9.057,10.167,12.509,13.494,6.858,35.315,6.858,48.721,0,6.66-3.407,9.994-7.868,10.008-12.335Z" transform="translate(-26.538 -15.919)" fill="#f4ca89"/>
            </g>
            <g id="Group_41169" data-name="Group 41169" transform="translate(0.03)">
              <path id="Path_32020" data-name="Path 32020" d="M85.276,14.962c13.494,6.858,13.566,17.985.159,24.843s-35.227,6.858-48.721,0S23.149,21.82,36.555,14.962s35.227-6.859,48.721,0Z" transform="translate(-26.547 -9.818)" fill="#fed44c"/>
              <g id="Group_41168" data-name="Group 41168" transform="translate(4.377 3.851)">
                <path id="Path_32021" data-name="Path 32021" d="M80.046,15.794c-5.876-2.972-13.746-4.632-22.209-4.632-8.441,0-16.29,1.64-22.121,4.632-5.043,2.587-7.827,5.79-7.827,9.033a5.317,5.317,0,0,0,.2,1.409c.7-2.722,3.355-5.365,7.63-7.547C41.548,15.7,49.4,14.057,57.837,14.057c8.463,0,16.333,1.66,22.209,4.632,4.319,2.2,7.081,4.941,7.783,7.7a5.618,5.618,0,0,0,.2-1.467c0-3.223-2.916-6.542-7.98-9.129Z" transform="translate(-27.889 -11.163)" fill="#f1bb34"/>
                <path id="Path_32022" data-name="Path 32022" d="M79.909,16.805c-5.876-2.972-13.746-4.632-22.209-4.632-8.441,0-16.29,1.641-22.121,4.632-4.275,2.181-6.928,4.825-7.63,7.547.7,2.76,3.464,5.519,7.783,7.72C41.608,35.063,49.479,36.7,57.942,36.7c8.441,0,16.29-1.641,22.121-4.632,4.275-2.2,6.928-4.845,7.629-7.566-.7-2.76-3.464-5.5-7.783-7.7Z" transform="translate(-27.752 -9.278)" fill="#f9c83a"/>
              </g>
            </g>
          </g>
        </g>
        <g id="Group_41186" data-name="Group 41186" transform="translate(14.702 8.364)">
          <g id="Group_41185" data-name="Group 41185">
            <g id="Group_41172" data-name="Group 41172" transform="translate(33.515 2.115)">
              <path id="Path_32023" data-name="Path 32023" d="M43.208,13.476,43.2,15l-1.881.962.005-1.527Z" transform="translate(-41.321 -13.476)" fill="#f1bb34"/>
            </g>
            <g id="Group_41173" data-name="Group 41173" transform="translate(19.407 3.031)">
              <path id="Path_32024" data-name="Path 32024" d="M37,17.244l0-1.527c0-.482.4-.933,1.2-1.341a6.13,6.13,0,0,1,3.021-.576,10.064,10.064,0,0,1,3.6.829l0,1.527a10.069,10.069,0,0,0-3.6-.829A6.127,6.127,0,0,0,38.2,15.9C37.4,16.311,37,16.761,37,17.244Z" transform="translate(-36.996 -13.795)" fill="#f1bb34"/>
            </g>
            <g id="Group_41174" data-name="Group 41174" transform="translate(22.555 5.135)">
              <path id="Path_32025" data-name="Path 32025" d="M44.9,14.53l0,1.527-6.938,3.549,0-1.527Z" transform="translate(-37.961 -14.53)" fill="#f1bb34"/>
            </g>
            <g id="Group_41175" data-name="Group 41175" transform="translate(29.493 5.135)">
              <path id="Path_32026" data-name="Path 32026" d="M43.26,18.323l0,1.527a7.622,7.622,0,0,0-3.167-3.793l0-1.527A7.621,7.621,0,0,1,43.26,18.323Z" transform="translate(-40.088 -14.53)" fill="#f1bb34"/>
            </g>
            <g id="Group_41176" data-name="Group 41176" transform="translate(32.66 8.417)">
              <path id="Path_32027" data-name="Path 32027" d="M46.884,15.675l0,1.527-5.82.511,0-1.527Z" transform="translate(-41.059 -15.675)" fill="#f1bb34"/>
            </g>
            <g id="Group_41177" data-name="Group 41177" transform="translate(12.741 4.648)">
              <path id="Path_32028" data-name="Path 32028" d="M34.952,15.887l0-1.527a1.9,1.9,0,0,0,.03.34q.337,1.823,3.532,4.466l0,1.527q-3.2-2.645-3.532-4.465a1.879,1.879,0,0,1-.03-.34Z" transform="translate(-34.952 -14.36)" fill="#f1bb34"/>
            </g>
            <g id="Group_41178" data-name="Group 41178" transform="translate(18.055 10.987)">
              <path id="Path_32029" data-name="Path 32029" d="M38.21,18.92l0,1.527c0-.024,0-.049,0-.073-.04-.534-.586-1.3-1.622-2.274l0-1.527c1.036.976,1.582,1.74,1.622,2.274C38.21,18.871,38.211,18.9,38.21,18.92Z" transform="translate(-36.581 -16.572)" fill="#f1bb34"/>
            </g>
            <g id="Group_41179" data-name="Group 41179" transform="translate(11.414 10.987)">
              <path id="Path_32030" data-name="Path 32030" d="M41.191,16.572l0,1.527-6.641,3.4.005-1.527Z" transform="translate(-34.545 -16.572)" fill="#f1bb34"/>
            </g>
            <g id="Group_41180" data-name="Group 41180" transform="translate(0 8.473)">
              <path id="Path_32031" data-name="Path 32031" d="M36.167,22.4l0,1.527q-4.583-2.852-5.117-6.7l0-1.527Q31.589,19.549,36.167,22.4Z" transform="translate(-31.046 -15.695)" fill="#f1bb34"/>
            </g>
            <g id="Group_41181" data-name="Group 41181" transform="translate(2.426 16.553)">
              <path id="Path_32032" data-name="Path 32032" d="M34.176,19.726l0,1.527-2.382-1.211,0-1.527Z" transform="translate(-31.789 -18.515)" fill="#f1bb34"/>
            </g>
            <g id="Group_41182" data-name="Group 41182" transform="translate(4.808 16.405)">
              <path id="Path_32033" data-name="Path 32033" d="M35.179,18.464l0,1.527L32.52,21.349l0-1.527Z" transform="translate(-32.52 -18.464)" fill="#f1bb34"/>
            </g>
            <g id="Group_41183" data-name="Group 41183" transform="translate(7.463 13.642)">
              <path id="Path_32034" data-name="Path 32034" d="M52.153,17.5l0,1.527c0,1.135-.989,2.2-2.948,3.2a15.356,15.356,0,0,1-7.566,1.524,21.257,21.257,0,0,1-8.3-1.961l0-1.527a21.268,21.268,0,0,0,8.3,1.961A15.356,15.356,0,0,0,49.2,20.7q2.938-1.5,2.948-3.2Z" transform="translate(-33.334 -17.499)" fill="#f1bb34"/>
            </g>
            <g id="Group_41184" data-name="Group 41184" transform="translate(0.005)">
              <path id="Path_32035" data-name="Path 32035" d="M57.3,26.044c.207,1.261-.77,2.435-2.921,3.535A15.356,15.356,0,0,1,46.811,31.1a21.268,21.268,0,0,1-8.3-1.961L35.855,30.5,33.473,29.29l2.691-1.377q-4.583-2.852-5.117-6.7l5.93-.262a7.055,7.055,0,0,0,3.209,4.907l7.163-3.665q-3.2-2.645-3.532-4.466c-.215-1.211.734-2.362,2.867-3.453a15.373,15.373,0,0,1,7.466-1.528,20.211,20.211,0,0,1,8.065,1.842l1.845-.944,2.382,1.211-1.881.962a10.815,10.815,0,0,1,4.964,5.34l-5.82.511a7.621,7.621,0,0,0-3.167-3.793L53.6,21.422l.109.055q3.281,2.672,3.587,4.567ZM46.313,28.024a6.2,6.2,0,0,0,3.183-.566c.855-.437,1.267-.925,1.228-1.459s-.586-1.3-1.622-2.274l-6.641,3.4a11.648,11.648,0,0,0,3.852.9m5.572-8.153,6.39-3.269a10.064,10.064,0,0,0-3.6-.829,6.13,6.13,0,0,0-3.021.576c-.819.419-1.222.884-1.2,1.381s.486,1.211,1.431,2.141" transform="translate(-31.047 -12.738)" fill="#fed44c"/>
            </g>
          </g>
        </g>
      </g>
      <g id="Group_41208" data-name="Group 41208">
        <g id="Group_41192" data-name="Group 41192">
          <g id="Group_41191" data-name="Group 41191">
            <g id="Group_41188" data-name="Group 41188" transform="translate(0 17.479)">
              <path id="Path_32036" data-name="Path 32036" d="M93.174,10.669l-.03,9.44c-.015,4.467-3.348,8.928-10.008,12.335-13.406,6.858-35.227,6.859-48.721,0-6.79-3.451-10.182-7.983-10.167-12.509l.03-9.44C24.263,15.021,27.654,19.553,34.445,23c13.494,6.858,35.315,6.858,48.721,0,6.66-3.407,9.994-7.868,10.008-12.335Z" transform="translate(-24.247 -10.495)" fill="#f4ca89"/>
            </g>
            <g id="Group_41190" data-name="Group 41190" transform="translate(0.03)">
              <path id="Path_32037" data-name="Path 32037" d="M82.985,9.538c13.494,6.858,13.565,17.985.159,24.844s-35.227,6.858-48.721,0S20.859,16.4,34.264,9.538s35.227-6.858,48.721,0Z" transform="translate(-24.256 -4.395)" fill="#fed44c"/>
              <g id="Group_41189" data-name="Group 41189" transform="translate(4.377 3.851)">
                <path id="Path_32038" data-name="Path 32038" d="M77.756,10.371C71.88,7.4,64.009,5.739,55.546,5.739c-8.441,0-16.29,1.641-22.121,4.632C28.383,12.957,25.6,16.161,25.6,19.4a5.3,5.3,0,0,0,.2,1.409c.7-2.722,3.354-5.365,7.629-7.547,5.832-2.991,13.681-4.632,22.121-4.632,8.463,0,16.334,1.659,22.209,4.632,4.319,2.2,7.081,4.941,7.783,7.7a5.631,5.631,0,0,0,.2-1.467C85.736,16.277,82.82,12.957,77.756,10.371Z" transform="translate(-25.598 -5.739)" fill="#f1bb34"/>
                <path id="Path_32039" data-name="Path 32039" d="M77.619,11.381C71.743,8.409,63.873,6.749,55.409,6.749c-8.441,0-16.29,1.64-22.121,4.632-4.275,2.182-6.928,4.825-7.629,7.547.7,2.76,3.464,5.52,7.783,7.72,5.876,2.991,13.746,4.632,22.209,4.632,8.441,0,16.29-1.64,22.121-4.632,4.275-2.2,6.928-4.845,7.63-7.566C84.7,16.322,81.938,13.581,77.619,11.381Z" transform="translate(-25.461 -3.854)" fill="#f4ca89"/>
              </g>
            </g>
          </g>
        </g>
        <g id="Group_41207" data-name="Group 41207" transform="translate(14.702 8.363)">
          <g id="Group_41206" data-name="Group 41206">
            <g id="Group_41193" data-name="Group 41193" transform="translate(33.516 2.115)">
              <path id="Path_32040" data-name="Path 32040" d="M40.917,8.052l0,1.527-1.881.962,0-1.527Z" transform="translate(-39.031 -8.052)" fill="#f1bb34"/>
            </g>
            <g id="Group_41194" data-name="Group 41194" transform="translate(19.407 3.031)">
              <path id="Path_32041" data-name="Path 32041" d="M34.7,11.82l0-1.527c0-.482.4-.933,1.2-1.341a6.129,6.129,0,0,1,3.021-.575,10.071,10.071,0,0,1,3.6.829l0,1.527a10.071,10.071,0,0,0-3.6-.829,6.135,6.135,0,0,0-3.021.575C35.109,10.887,34.706,11.338,34.7,11.82Z" transform="translate(-34.705 -8.372)" fill="#f1bb34"/>
            </g>
            <g id="Group_41195" data-name="Group 41195" transform="translate(22.555 5.135)">
              <path id="Path_32042" data-name="Path 32042" d="M42.613,9.106l-.005,1.527-6.938,3.55.005-1.527Z" transform="translate(-35.67 -9.106)" fill="#f1bb34"/>
            </g>
            <g id="Group_41196" data-name="Group 41196" transform="translate(29.493 5.135)">
              <path id="Path_32043" data-name="Path 32043" d="M40.969,12.9l0,1.527A7.619,7.619,0,0,0,37.8,10.633l0-1.527A7.618,7.618,0,0,1,40.969,12.9Z" transform="translate(-37.797 -9.106)" fill="#f1bb34"/>
            </g>
            <g id="Group_41197" data-name="Group 41197" transform="translate(32.66 8.417)">
              <path id="Path_32044" data-name="Path 32044" d="M44.593,10.252l0,1.527-5.82.511,0-1.527Z" transform="translate(-38.768 -10.252)" fill="#f1bb34"/>
            </g>
            <g id="Group_41198" data-name="Group 41198" transform="translate(12.741 4.648)">
              <path id="Path_32045" data-name="Path 32045" d="M32.661,10.463l0-1.527a1.91,1.91,0,0,0,.03.34q.337,1.823,3.532,4.465l0,1.527q-3.2-2.645-3.532-4.466a1.908,1.908,0,0,1-.03-.34Z" transform="translate(-32.661 -8.936)" fill="#f1bb34"/>
            </g>
            <g id="Group_41199" data-name="Group 41199" transform="translate(18.055 10.987)">
              <path id="Path_32046" data-name="Path 32046" d="M35.92,13.5l0,1.527c0-.024,0-.048,0-.073-.04-.534-.586-1.3-1.622-2.274l0-1.527c1.036.976,1.582,1.74,1.622,2.274C35.919,13.447,35.92,13.471,35.92,13.5Z" transform="translate(-34.29 -11.148)" fill="#f1bb34"/>
            </g>
            <g id="Group_41200" data-name="Group 41200" transform="translate(11.414 10.987)">
              <path id="Path_32047" data-name="Path 32047" d="M38.9,11.148l0,1.527-6.641,3.4,0-1.527Z" transform="translate(-32.254 -11.148)" fill="#f1bb34"/>
            </g>
            <g id="Group_41201" data-name="Group 41201" transform="translate(0 8.473)">
              <path id="Path_32048" data-name="Path 32048" d="M33.877,16.974l0,1.527q-4.583-2.852-5.117-6.7l0-1.527Q29.3,14.125,33.877,16.974Z" transform="translate(-28.755 -10.271)" fill="#f1bb34"/>
            </g>
            <g id="Group_41202" data-name="Group 41202" transform="translate(2.426 16.553)">
              <path id="Path_32049" data-name="Path 32049" d="M31.886,14.3l-.005,1.527L29.5,14.618l0-1.527Z" transform="translate(-29.498 -13.091)" fill="#f1bb34"/>
            </g>
            <g id="Group_41203" data-name="Group 41203" transform="translate(4.808 16.405)">
              <path id="Path_32050" data-name="Path 32050" d="M32.889,13.04l0,1.527-2.655,1.358.005-1.527Z" transform="translate(-30.229 -13.04)" fill="#f1bb34"/>
            </g>
            <g id="Group_41204" data-name="Group 41204" transform="translate(7.463 13.642)">
              <path id="Path_32051" data-name="Path 32051" d="M49.861,12.075l0,1.527q-.005,1.7-2.947,3.2a15.356,15.356,0,0,1-7.565,1.524,21.261,21.261,0,0,1-8.3-1.961l0-1.527a21.256,21.256,0,0,0,8.3,1.961,15.353,15.353,0,0,0,7.566-1.524c1.959-1,2.944-2.065,2.947-3.2Z" transform="translate(-31.043 -12.075)" fill="#f1bb34"/>
            </g>
            <g id="Group_41205" data-name="Group 41205" transform="translate(0.005)">
              <path id="Path_32052" data-name="Path 32052" d="M55.006,20.621c.207,1.261-.77,2.435-2.92,3.535A15.353,15.353,0,0,1,44.52,25.68a21.256,21.256,0,0,1-8.3-1.961l-2.655,1.358-2.383-1.211,2.691-1.377q-4.583-2.852-5.117-6.7l5.93-.262a7.056,7.056,0,0,0,3.21,4.908l7.163-3.665q-3.2-2.645-3.532-4.465c-.215-1.211.734-2.362,2.867-3.453A15.371,15.371,0,0,1,51.861,7.32a20.211,20.211,0,0,1,8.065,1.842l1.845-.944,2.382,1.211-1.881.962a10.816,10.816,0,0,1,4.964,5.34l-5.82.511a7.619,7.619,0,0,0-3.166-3.793L51.311,16l.109.055q3.281,2.672,3.586,4.567ZM44.022,22.6a6.207,6.207,0,0,0,3.184-.566c.855-.437,1.267-.925,1.228-1.459s-.586-1.3-1.622-2.274L40.17,21.7a11.657,11.657,0,0,0,3.852.9m5.573-8.153,6.39-3.269a10.071,10.071,0,0,0-3.6-.829,6.129,6.129,0,0,0-3.021.575c-.819.419-1.222.884-1.2,1.381s.486,1.211,1.431,2.141" transform="translate(-28.756 -7.314)" fill="#fed44c"/>
            </g>
          </g>
        </g>
      </g>
    </g>
    <path id="Path_32053" data-name="Path 32053" d="M47.988,23.2l2.144,2.712-3.088-1.883-1.437,6.988-1.437-6.988-3.088,1.883L43.228,23.2l-7.955-1.262,7.955-1.262-2.144-2.712,3.088,1.883,1.437-6.988,1.437,6.988,3.088-1.883-2.144,2.712,7.955,1.262Z" transform="translate(76.51 11.398)" fill="#fff"/>
  </g>
</svg>
