<svg id="money2" xmlns="http://www.w3.org/2000/svg" xmlns:xlink="http://www.w3.org/1999/xlink" width="66.612" height="66.612" viewBox="0 0 66.612 66.612">
  <defs>
    <linearGradient id="linear-gradient" x1="0.5" x2="0.5" y2="1" gradientUnits="objectBoundingBox">
      <stop offset="0" stop-color="#f4ca89"/>
      <stop offset="1" stop-color="#e2ad5b"/>
    </linearGradient>
  </defs>
  <g id="Group_45656" data-name="Group 45656">
    <path id="Path_39397" data-name="Path 39397" d="M32,292.091l-2.849.586a36.983,36.983,0,0,1-7.689.742C9.445,293.418,0,288.266,0,281.709V270l4.489,1.756c1.834,3.122,8.274,6.05,16.978,6.05,1.249,0,2.537-.078,3.708-.2l2.147-.2v2.147a17.83,17.83,0,0,0,3.044,10.109Z" transform="translate(0 -234.873)" fill="url(#linear-gradient)"/>
    <path id="Path_39398" data-name="Path 39398" d="M173.9,339.255l1.639,2.42-2.849.586A36.989,36.989,0,0,1,165,343V327.389c1.249,0,2.537-.078,3.708-.2l2.147-.2v2.147A17.831,17.831,0,0,0,173.9,339.255Z" transform="translate(-143.533 -284.456)" fill="url(#linear-gradient)"/>
    <path id="Path_39399" data-name="Path 39399" d="M35.6,185.347l-4.02,4.684a17.559,17.559,0,0,0-4.254,11.241v1.8l-1.756.156c-1.327.117-2.693.2-4.1.2C9.445,203.418,0,198.266,0,191.709V180l4.723,2.108c2.108,2.966,8.352,5.7,16.744,5.7a33.671,33.671,0,0,0,8.157-.937Z" transform="translate(0 -156.582)" fill="#f4ca89"/>
    <path id="Path_39400" data-name="Path 39400" d="M173.157,222.622l5.971-1.522-4.02,4.684a17.559,17.559,0,0,0-4.254,11.241v1.8l-1.756.156c-1.327.117-2.693.2-4.1.2V223.559A33.673,33.673,0,0,0,173.157,222.622Z" transform="translate(-143.533 -192.335)" fill="#f4ca89"/>
    <path id="Path_39401" data-name="Path 39401" d="M39.03,90c0,3.708-7.22,7.806-17.564,7.806S3.9,93.708,3.9,90H0v11.709c0,6.557,9.445,11.709,21.467,11.709a37.5,37.5,0,0,0,9.094-1.054l.624-.156.39-.468a17.417,17.417,0,0,1,9.8-5.777l1.561-.312V90Z" transform="translate(0 -78.291)" fill="url(#linear-gradient)"/>
    <path id="Path_39402" data-name="Path 39402" d="M186.467,90v15.651l-1.561.312a17.418,17.418,0,0,0-9.8,5.777l-.39.468-.624.156A37.5,37.5,0,0,1,165,113.418V97.806c10.343,0,17.564-4.1,17.564-7.806Z" transform="translate(-143.533 -78.291)" fill="url(#linear-gradient)"/>
    <path id="Path_39403" data-name="Path 39403" d="M21.467,0C9.445,0,0,5.152,0,11.709S9.445,23.418,21.467,23.418s21.467-5.152,21.467-11.709S33.488,0,21.467,0Z" fill="#f4ca89"/>
    <path id="Path_39404" data-name="Path 39404" d="M186.467,11.709c0,6.557-9.445,11.709-21.467,11.709V0C177.021,0,186.467,5.152,186.467,11.709Z" transform="translate(-143.533)" fill="#f4ca89"/>
    <path id="Path_39405" data-name="Path 39405" d="M203.467,182a20.755,20.755,0,0,0-4.293.429A21.444,21.444,0,0,0,182,203.467a21.3,21.3,0,0,0,3.747,12.1A21.462,21.462,0,1,0,203.467,182Z" transform="translate(-158.322 -158.322)" fill="url(#linear-gradient)"/>
    <path id="Path_39406" data-name="Path 39406" d="M368.467,203.467A21.5,21.5,0,0,1,347,224.933V182A21.5,21.5,0,0,1,368.467,203.467Z" transform="translate(-301.855 -158.322)" fill="#f4ca89"/>
    <path id="Path_39407" data-name="Path 39407" d="M313.709,259.564a5.874,5.874,0,0,1-3.9,5.5v4.254h-3.9v-4.254a5.874,5.874,0,0,1-3.9-5.5h3.9a1.952,1.952,0,1,0,1.952-1.951,5.845,5.845,0,0,1-1.952-11.358V242h3.9v4.254a5.875,5.875,0,0,1,3.9,5.5h-3.9a1.952,1.952,0,1,0-1.952,1.951A5.847,5.847,0,0,1,313.709,259.564Z" transform="translate(-262.709 -210.516)" fill="#635238"/>
    <path id="Path_39408" data-name="Path 39408" d="M352.855,337.855a5.875,5.875,0,0,1-3.9,5.5v4.254H347v-7.806a1.952,1.952,0,0,0,0-3.9V332A5.847,5.847,0,0,1,352.855,337.855Z" transform="translate(-301.855 -288.806)" fill="#635238"/>
    <path id="Path_39409" data-name="Path 39409" d="M347,249.806V242h1.952v4.254a5.875,5.875,0,0,1,3.9,5.5h-3.9A1.932,1.932,0,0,0,347,249.806Z" transform="translate(-301.855 -210.516)" fill="#635238"/>
  </g>
</svg>
