<svg xmlns="http://www.w3.org/2000/svg" xmlns:xlink="http://www.w3.org/1999/xlink" width="96.067" height="111.787" viewBox="0 0 96.067 111.787">
  <defs>
    <linearGradient id="linear-gradient" x1="0.5" x2="0.5" y2="1" gradientUnits="objectBoundingBox">
      <stop offset="0" stop-color="#f4ca89"/>
      <stop offset="1" stop-color="#e2ad5b"/>
    </linearGradient>
  </defs>
  <g id="reports" transform="translate(0.001 0)">
    <path id="Path_39240" data-name="Path 39240" d="M95.086,23.368,72.249.936A3.275,3.275,0,0,0,69.955,0H12.219A12.233,12.233,0,0,0,0,12.218V99.567a12.234,12.234,0,0,0,12.22,12.22H83.846a12.234,12.234,0,0,0,12.22-12.22V25.7a3.275,3.275,0,0,0-.98-2.336Zm0,0" transform="translate(0 0)" fill="#f4ca89"/>
    <path id="Path_39241" data-name="Path 39241" d="M268.034,25.7V99.567a12.234,12.234,0,0,1-12.22,12.22H220V0h21.922a3.275,3.275,0,0,1,2.294.936l22.837,22.432a3.275,3.275,0,0,1,.98,2.336Zm0,0" transform="translate(-171.967 0)" fill="url(#linear-gradient)"/>
    <g id="Group_45481" data-name="Group 45481" transform="translate(21.328 51.963)">
      <path id="Path_39242" data-name="Path 39242" d="M150.4,241.275a3.276,3.276,0,0,1-3.275,3.275H100.963a3.275,3.275,0,1,1,0-6.55h46.166A3.275,3.275,0,0,1,150.4,241.275Zm0,0" transform="translate(-97.688 -238)" fill="#fff"/>
      <path id="Path_39243" data-name="Path 39243" d="M141.881,301.275a3.276,3.276,0,0,1-3.275,3.275H100.962a3.275,3.275,0,0,1,0-6.55h37.644A3.275,3.275,0,0,1,141.881,301.275Zm0,0" transform="translate(-97.688 -284.9)" fill="#fff"/>
      <path id="Path_39244" data-name="Path 39244" d="M146.421,361.275a3.276,3.276,0,0,1-3.275,3.275H100.962a3.275,3.275,0,0,1,0-6.55h42.184A3.275,3.275,0,0,1,146.421,361.275Zm0,0" transform="translate(-97.688 -331.8)" fill="#fff"/>
    </g>
    <path id="Path_39245" data-name="Path 39245" d="M334.793,25.7v3.275H313a7.6,7.6,0,0,1-7.591-7.591V0h3.275a3.274,3.274,0,0,1,2.294.936l22.837,22.432a3.275,3.275,0,0,1,.98,2.336Zm0,0" transform="translate(-238.726)" fill="url(#linear-gradient)"/>
    <path id="Path_39246" data-name="Path 39246" d="M234.213,304.55H220V298h14.213a3.275,3.275,0,0,1,0,6.55Zm0,0" transform="translate(-171.967 -232.937)" fill="#fff2e3"/>
    <path id="Path_39247" data-name="Path 39247" d="M242.029,361.275a3.276,3.276,0,0,1-3.275,3.275H220V358h18.754A3.275,3.275,0,0,1,242.029,361.275Zm0,0" transform="translate(-171.967 -279.837)" fill="#fff2e3"/>
    <path id="Path_39248" data-name="Path 39248" d="M246.012,241.275a3.276,3.276,0,0,1-3.275,3.275H220V238h22.737A3.275,3.275,0,0,1,246.012,241.275Zm0,0" transform="translate(-171.967 -186.037)" fill="#fff2e3"/>
    <g id="Group_45482" data-name="Group 45482" transform="translate(12.648 16.372)">
      <path id="Path_38429" data-name="Path 38429" d="M118.985,270.336c0,2.487-2.561,4.536-5.706,4.536h-6.072c-3.146,0-5.706-2.048-5.706-4.536s2.561-4.536,5.706-4.536h6.072C116.424,265.8,118.985,267.848,118.985,270.336Z" transform="translate(-98.062 -256.36)" fill="#fff"/>
      <g id="Group_44806" data-name="Group 44806">
        <g id="Group_44804" data-name="Group 44804">
          <path id="Path_38430" data-name="Path 38430" d="M110.592,256.63a3.192,3.192,0,1,1-3.146-3.731C109.2,252.826,110.592,254.509,110.592,256.63Z" transform="translate(-98.813 -252.897)" fill="#fff"/>
          <path id="Path_38431" data-name="Path 38431" d="M102.067,261.946a2.675,2.675,0,1,1-2.634-3.146A2.907,2.907,0,0,1,102.067,261.946Z" transform="translate(-96.8 -254.481)" fill="#fff"/>
        </g>
        <g id="Group_44805" data-name="Group 44805" transform="translate(12.656)">
          <path id="Path_38432" data-name="Path 38432" d="M114.1,256.63a3.192,3.192,0,1,0,3.146-3.731C115.49,252.826,114.1,254.509,114.1,256.63Z" transform="translate(-114.1 -252.897)" fill="#fff"/>
          <path id="Path_38433" data-name="Path 38433" d="M123,261.946a2.675,2.675,0,1,0,2.634-3.146A2.907,2.907,0,0,0,123,261.946Z" transform="translate(-116.489 -254.481)" fill="#fff"/>
        </g>
      </g>
    </g>
  </g>
</svg>
