<svg xmlns="http://www.w3.org/2000/svg" width="69.542" height="66.508" viewBox="0 0 69.542 66.508">
  <g id="user" transform="translate(-1181.609 -294.747)">
    <g id="user_signin" data-name="user signin" transform="translate(1181.609 294.747)">
      <path id="Path_39149" data-name="Path 39149" d="M51.688,18.935a18.935,18.935,0,1,0-29.649,15.6A32.8,32.8,0,0,0,0,65.506H5.117A27.667,27.667,0,0,1,32.753,37.871,18.957,18.957,0,0,0,51.688,18.935ZM32.753,32.753A13.818,13.818,0,1,1,46.57,18.935,13.833,13.833,0,0,1,32.753,32.753ZM65.542,47.082,53.5,59.127l-3.619-3.619,6-6H51.435a11.144,11.144,0,0,0-11.13,11.121l0,4.874-5.117,0,0-4.874A16.269,16.269,0,0,1,51.435,44.4h4.182l-5.739-5.739L53.5,35.038Zm0,0" transform="translate(0 0)" fill="#635238"/>
    </g>
    <g id="user_signin-2" data-name="user signin" transform="translate(1183.609 294.747)">
      <path id="Path_39149-2" data-name="Path 39149" d="M51.688,18.935a18.935,18.935,0,1,0-29.649,15.6A32.8,32.8,0,0,0,0,65.506H5.117A27.667,27.667,0,0,1,32.753,37.871,18.957,18.957,0,0,0,51.688,18.935ZM32.753,32.753A13.818,13.818,0,1,1,46.57,18.935,13.833,13.833,0,0,1,32.753,32.753ZM65.542,47.082,53.5,59.127l-3.619-3.619,6-6H51.435a11.144,11.144,0,0,0-11.13,11.121l0,4.874-5.117,0,0-4.874A16.269,16.269,0,0,1,51.435,44.4h4.182l-5.739-5.739L53.5,35.038Zm0,0" transform="translate(2 1)" fill="#f4ca89"/>
    </g>
  </g>
</svg>
